<svg width="567" height="538" viewBox="0 0 567 538" fill="none" xmlns="http://www.w3.org/2000/svg">
<path d="M40.2362 309.538L49.3522 304.273C49.3522 304.273 54.7799 281.711 52.6205 261.424C49.574 232.886 30.7932 222.147 23.6498 224.61C16.5063 227.073 14.4403 235.372 26.2644 252.367C33.2328 262.393 41.8002 283.275 40.2362 309.538Z" fill="#1F5AB2"/>
<g opacity="0.65">
<path d="M40.2352 309.538L49.3513 304.273C49.3513 304.273 54.7789 281.711 52.6195 261.424C49.573 232.886 30.7923 222.147 23.6488 224.61C16.5053 227.073 14.4393 235.372 26.2634 252.367C33.2318 262.393 41.7993 283.275 40.2352 309.538Z" fill="white"/>
</g>
<path d="M44.0178 298.461H43.9244C43.7605 298.43 43.6155 298.335 43.5214 298.197C43.4273 298.059 43.3918 297.889 43.4225 297.725C48.4183 271.346 39.2322 241.815 27.84 229.512C27.727 229.388 27.6678 229.225 27.6755 229.057C27.6831 228.89 27.757 228.732 27.8808 228.619C28.0047 228.506 28.1683 228.447 28.3358 228.455C28.5032 228.462 28.6608 228.536 28.7738 228.66C40.3644 241.185 49.7839 271.241 44.6598 297.947C44.6319 298.095 44.5518 298.229 44.4341 298.323C44.3163 298.417 44.1686 298.466 44.0178 298.461Z" fill="white"/>
<path d="M17.2766 322.786C15.9226 323.486 12.2925 320.381 11.2887 319.634C9.55988 318.32 8.19743 316.584 7.33175 314.592C6.35579 312.335 6.11089 309.828 6.63141 307.425C6.90979 306.156 7.27641 304.908 7.72861 303.69C8.13714 302.523 8.54567 301.285 8.96587 300.071C9.45307 298.907 9.69925 297.657 9.68956 296.395C9.49113 293.873 7.35509 292.006 5.40581 290.383C3.24643 288.586 1.02869 286.263 1.19211 283.24C1.47543 280.9 2.52627 278.721 4.18022 277.042C5.70929 275.291 7.50683 273.75 8.91918 271.894C10.0212 270.585 10.6393 268.937 10.67 267.225C10.5837 266.18 10.2859 265.164 9.79461 264.237C8.6611 262.304 7.68525 260.282 6.87653 258.191C6.25789 256.043 6.49134 253.417 8.21884 251.981C8.98578 251.473 9.84545 251.12 10.7487 250.944C11.652 250.768 12.5811 250.771 13.4831 250.954C15.1887 251.254 16.8094 251.919 18.2337 252.904C22.9026 255.81 25.3538 261.634 30.3379 263.946C32.3258 264.673 34.3567 265.278 36.4192 265.755C37.4523 266.003 38.4227 266.463 39.2686 267.106C40.1145 267.749 40.8176 268.561 41.3332 269.49C43.014 273.318 39.3139 277.754 40.4228 281.781C41.4149 285.283 44.7532 286.858 46.5041 290.115C47.2201 291.56 47.4534 293.196 47.1694 294.784C46.8675 297.458 46.0762 300.053 44.8349 302.441C43.4416 304.893 41.902 307.259 40.2243 309.526C40.2243 309.526 17.4867 322.704 17.2766 322.786Z" fill="#1F5AB2"/>
<g opacity="0.3">
<path d="M17.2766 322.786C15.9226 323.486 12.2925 320.381 11.2887 319.634C9.55988 318.32 8.19743 316.584 7.33175 314.592C6.35579 312.335 6.11089 309.828 6.63141 307.425C6.90979 306.156 7.27641 304.908 7.72861 303.69C8.13714 302.523 8.54567 301.285 8.96587 300.071C9.45307 298.907 9.69925 297.657 9.68956 296.395C9.49113 293.873 7.35509 292.006 5.40581 290.383C3.24643 288.586 1.02869 286.263 1.19211 283.24C1.47543 280.9 2.52627 278.721 4.18022 277.042C5.70929 275.291 7.50683 273.75 8.91918 271.894C10.0212 270.585 10.6393 268.937 10.67 267.225C10.5837 266.18 10.2859 265.164 9.79461 264.237C8.6611 262.304 7.68525 260.282 6.87653 258.191C6.25789 256.043 6.49134 253.417 8.21884 251.981C8.98578 251.473 9.84545 251.12 10.7487 250.944C11.652 250.768 12.5811 250.771 13.4831 250.954C15.1887 251.254 16.8094 251.919 18.2337 252.904C22.9026 255.81 25.3538 261.634 30.3379 263.946C32.3258 264.673 34.3567 265.278 36.4192 265.755C37.4523 266.003 38.4227 266.463 39.2686 267.106C40.1145 267.749 40.8176 268.561 41.3332 269.49C43.014 273.318 39.3139 277.754 40.4228 281.781C41.4149 285.283 44.7532 286.858 46.5041 290.115C47.2201 291.56 47.4534 293.196 47.1694 294.784C46.8675 297.458 46.0762 300.053 44.8349 302.441C43.4416 304.893 41.902 307.259 40.2243 309.526C40.2243 309.526 17.4867 322.704 17.2766 322.786Z" fill="white"/>
</g>
<path d="M30.4781 315.911C30.3191 315.896 30.1723 315.819 30.0696 315.697C29.9669 315.574 29.9165 315.416 29.9295 315.257C32.1122 291.586 22.2608 264.833 14.5104 256.814C14.4005 256.699 14.3406 256.546 14.3439 256.387C14.3472 256.228 14.4134 256.077 14.5279 255.968C14.6424 255.858 14.7959 255.798 14.9546 255.801C15.1133 255.804 15.2642 255.87 15.3741 255.985C23.2763 264.156 33.3378 291.364 31.1201 315.362C31.1142 315.44 31.0929 315.517 31.0574 315.587C31.0219 315.657 30.9729 315.719 30.9132 315.77C30.8536 315.821 30.7844 315.86 30.7097 315.884C30.6351 315.908 30.5563 315.917 30.4781 315.911Z" fill="white"/>
<path d="M28.1315 286.73H27.9565C22.4144 284.882 16.689 283.638 10.8799 283.018C10.8021 283.012 10.7262 282.991 10.6568 282.955C10.5874 282.92 10.5258 282.87 10.4758 282.811C10.4257 282.751 10.3882 282.681 10.3654 282.607C10.3425 282.532 10.3349 282.454 10.3429 282.376C10.3454 282.296 10.3648 282.217 10.4 282.144C10.4351 282.072 10.4852 282.007 10.5469 281.955C10.6086 281.904 10.6806 281.866 10.7581 281.843C10.8356 281.821 10.9169 281.816 10.9966 281.828C16.9031 282.434 22.7266 283.678 28.365 285.539C28.4945 285.593 28.6013 285.691 28.6673 285.814C28.7332 285.938 28.7542 286.081 28.7267 286.219C28.6992 286.356 28.6249 286.48 28.5164 286.569C28.4078 286.658 28.2719 286.707 28.1315 286.707V286.73Z" fill="white"/>
<path d="M527.159 309.538L518.043 304.273C518.043 304.273 512.615 281.711 514.774 261.424C517.821 232.886 536.602 222.147 543.745 224.61C550.888 227.073 552.954 235.372 541.13 252.367C534.162 262.393 525.595 283.275 527.159 309.538Z" fill="#1F5AB2"/>
<g opacity="0.65">
<path d="M527.159 309.538L518.043 304.273C518.043 304.273 512.615 281.711 514.774 261.424C517.821 232.886 536.602 222.147 543.745 224.61C550.888 227.073 552.954 235.372 541.13 252.367C534.162 262.393 525.595 283.275 527.159 309.538Z" fill="white"/>
</g>
<path d="M523.377 298.461H523.471C523.635 298.43 523.78 298.335 523.874 298.197C523.968 298.059 524.003 297.889 523.973 297.725C518.977 271.404 528.163 241.827 539.555 229.524C539.668 229.4 539.727 229.236 539.72 229.069C539.712 228.902 539.638 228.744 539.514 228.631C539.39 228.518 539.227 228.459 539.059 228.466C538.892 228.474 538.734 228.548 538.621 228.672C527.031 241.196 517.611 271.252 522.735 297.959C522.766 298.105 522.847 298.235 522.964 298.327C523.082 298.419 523.228 298.467 523.377 298.461Z" fill="white"/>
<path d="M550.118 322.786C551.472 323.486 555.102 320.381 556.106 319.634C557.835 318.32 559.197 316.584 560.063 314.592C561.039 312.335 561.284 309.828 560.763 307.425C560.485 306.156 560.118 304.908 559.666 303.69C559.257 302.523 558.849 301.285 558.429 300.071C557.941 298.907 557.695 297.657 557.705 296.395C557.903 293.873 560.039 292.006 561.989 290.383C564.148 288.586 566.366 286.263 566.202 283.24C565.919 280.9 564.868 278.721 563.214 277.042C561.685 275.291 559.888 273.75 558.475 271.894C557.373 270.585 556.755 268.937 556.724 267.226C556.811 266.18 557.109 265.164 557.6 264.237C558.733 262.304 559.709 260.282 560.518 258.191C561.137 256.043 560.903 253.417 559.176 251.981C558.409 251.473 557.549 251.12 556.646 250.944C555.742 250.768 554.813 250.771 553.911 250.954C552.206 251.254 550.585 251.919 549.161 252.904C544.492 255.81 542.041 261.634 537.057 263.946C535.069 264.673 533.038 265.278 530.975 265.755C529.942 266.003 528.972 266.463 528.126 267.106C527.28 267.749 526.577 268.561 526.061 269.49C524.38 273.318 528.081 277.754 526.972 281.781C525.98 285.283 522.641 286.858 520.89 290.115C520.174 291.56 519.941 293.196 520.225 294.784C520.527 297.458 521.318 300.053 522.56 302.441C523.953 304.893 525.492 307.259 527.17 309.526C527.17 309.526 549.908 322.704 550.118 322.786Z" fill="#1F5AB2"/>
<g opacity="0.3">
<path d="M550.118 322.786C551.472 323.486 555.102 320.381 556.106 319.634C557.835 318.32 559.197 316.584 560.063 314.592C561.039 312.335 561.284 309.828 560.763 307.425C560.485 306.156 560.118 304.908 559.666 303.69C559.257 302.523 558.849 301.285 558.429 300.071C557.941 298.907 557.695 297.657 557.705 296.395C557.903 293.873 560.039 292.006 561.989 290.383C564.148 288.586 566.366 286.263 566.202 283.24C565.919 280.9 564.868 278.721 563.214 277.042C561.685 275.291 559.888 273.75 558.475 271.894C557.373 270.585 556.755 268.937 556.724 267.226C556.811 266.18 557.109 265.164 557.6 264.237C558.733 262.304 559.709 260.282 560.518 258.191C561.137 256.043 560.903 253.417 559.176 251.981C558.409 251.473 557.549 251.12 556.646 250.944C555.742 250.768 554.813 250.771 553.911 250.954C552.206 251.254 550.585 251.919 549.161 252.904C544.492 255.81 542.041 261.634 537.057 263.946C535.069 264.673 533.038 265.278 530.975 265.755C529.942 266.003 528.972 266.463 528.126 267.106C527.28 267.749 526.577 268.561 526.061 269.49C524.38 273.318 528.081 277.754 526.972 281.781C525.98 285.283 522.641 286.858 520.89 290.115C520.174 291.56 519.941 293.196 520.225 294.784C520.527 297.458 521.318 300.053 522.56 302.441C523.953 304.893 525.492 307.259 527.17 309.526C527.17 309.526 549.908 322.704 550.118 322.786Z" fill="white"/>
</g>
<path d="M536.917 315.911C537.076 315.896 537.223 315.819 537.325 315.697C537.428 315.574 537.478 315.416 537.465 315.257C535.283 291.586 545.134 264.833 552.885 256.814C552.994 256.699 553.054 256.546 553.051 256.387C553.048 256.228 552.982 256.077 552.867 255.968C552.753 255.858 552.599 255.798 552.44 255.801C552.282 255.804 552.131 255.871 552.021 255.985C544.119 264.156 534.057 291.364 536.275 315.362C536.281 315.44 536.302 315.517 536.338 315.587C536.373 315.657 536.422 315.719 536.482 315.77C536.541 315.821 536.611 315.86 536.685 315.884C536.76 315.908 536.839 315.917 536.917 315.911Z" fill="white"/>
<path d="M539.322 286.73H539.497C545.02 284.886 550.725 283.642 556.515 283.018C556.593 283.012 556.669 282.991 556.738 282.955C556.807 282.92 556.869 282.87 556.919 282.811C556.969 282.751 557.007 282.681 557.029 282.607C557.052 282.532 557.06 282.454 557.052 282.376C557.049 282.296 557.03 282.217 556.995 282.144C556.96 282.072 556.91 282.007 556.848 281.955C556.786 281.904 556.714 281.866 556.637 281.843C556.559 281.821 556.478 281.816 556.398 281.828C550.492 282.434 544.668 283.678 539.03 285.539C538.9 285.593 538.793 285.691 538.727 285.814C538.662 285.938 538.641 286.081 538.668 286.219C538.696 286.356 538.77 286.48 538.878 286.569C538.987 286.658 539.123 286.707 539.263 286.707L539.322 286.73Z" fill="white"/>
<path d="M283.697 538C439.933 538 566.587 464.874 566.587 374.669C566.587 284.464 439.933 211.338 283.697 211.338C127.461 211.338 0.806641 284.464 0.806641 374.669C0.806641 464.874 127.461 538 283.697 538Z" fill="#F5F5F5"/>
<path d="M218.565 402.951L299.256 356.367L199.575 298.822L118.884 345.407L218.565 402.951Z" fill="#E0E0E0"/>
<path d="M334.192 504.465L409.28 461.114L334.192 417.763L259.115 461.114L334.192 504.465Z" fill="#E0E0E0"/>
<path d="M448.756 441.797C484.933 441.797 514.261 424.865 514.261 403.978C514.261 383.092 484.933 366.16 448.756 366.16C412.579 366.16 383.251 383.092 383.251 403.978C383.251 424.865 412.579 441.797 448.756 441.797Z" fill="#E0E0E0"/>
<path d="M108.076 448.508C153.691 448.508 190.669 427.161 190.669 400.827C190.669 374.493 153.691 353.145 108.076 353.145C62.4607 353.145 25.4824 374.493 25.4824 400.827C25.4824 427.161 62.4607 448.508 108.076 448.508Z" fill="#E0E0E0"/>
<path d="M16.0974 70.8854C15.9581 70.8863 15.8211 70.8501 15.7005 70.7803C15.5758 70.7111 15.472 70.6095 15.4001 70.4863C15.3282 70.363 15.2909 70.2227 15.292 70.08V43.4087C15.2909 43.2661 15.3282 43.1257 15.4001 43.0025C15.472 42.8792 15.5758 42.7776 15.7005 42.7084L38.6483 29.4603C38.7695 29.386 38.9089 29.3467 39.051 29.3467C39.1932 29.3467 39.3325 29.386 39.4537 29.4603C39.5755 29.532 39.6763 29.6344 39.7459 29.7573C39.8156 29.8803 39.8517 30.0194 39.8506 30.1606V56.8436C39.8509 56.9845 39.8131 57.1229 39.7411 57.2442C39.6692 57.3654 39.5659 57.4649 39.4421 57.5322L16.5059 70.7803C16.3807 70.849 16.2402 70.8852 16.0974 70.8854ZM16.9028 43.864V68.691L38.2398 56.3767V31.5497L16.9028 43.864Z" fill="#E0E0E0"/>
<path d="M16.0974 116.232C15.9563 116.235 15.8177 116.194 15.7005 116.116C15.5767 116.048 15.4734 115.949 15.4015 115.828C15.3295 115.706 15.2917 115.568 15.292 115.427V88.744C15.2909 88.6014 15.3282 88.461 15.4001 88.3378C15.472 88.2145 15.5758 88.1129 15.7005 88.0437L38.6483 74.7956C38.7715 74.7271 38.9101 74.6912 39.051 74.6912C39.1919 74.6912 39.3306 74.7271 39.4537 74.7956C39.5755 74.8673 39.6763 74.9697 39.7459 75.0926C39.8156 75.2156 39.8517 75.3547 39.8506 75.4959V102.179C39.8505 102.321 39.8126 102.461 39.7409 102.584C39.6691 102.707 39.566 102.809 39.4421 102.879L16.5059 116.104C16.3852 116.186 16.2432 116.23 16.0974 116.232ZM16.9028 89.2576V114.073L38.2398 101.759V76.885L16.9028 89.2576Z" fill="#E0E0E0"/>
<path d="M27.2913 103.755L21.957 98.6188L23.7312 94.837L26.7777 97.7551L39.9324 69.9283L42.2319 72.1343L27.2913 103.755Z" fill="#1F5AB2"/>
<path d="M16.0974 161.626C15.9581 161.627 15.8211 161.591 15.7005 161.521C15.5774 161.45 15.4749 161.348 15.4033 161.225C15.3316 161.102 15.2933 160.963 15.292 160.821V134.079C15.2921 133.937 15.3299 133.797 15.4017 133.674C15.4735 133.551 15.5766 133.449 15.7005 133.379L38.6483 120.131C38.7697 120.07 38.9045 120.04 39.0402 120.045C39.176 120.051 39.3083 120.09 39.4247 120.16C39.5412 120.23 39.6381 120.328 39.7065 120.445C39.7748 120.563 39.8123 120.695 39.8155 120.831V147.514C39.8167 147.657 39.7793 147.797 39.7074 147.92C39.6355 148.044 39.5318 148.145 39.407 148.214L16.5059 161.463C16.3864 161.552 16.2455 161.608 16.0974 161.626ZM16.9028 134.605V159.42L38.2398 147.106V122.232L16.9028 134.605Z" fill="#E0E0E0"/>
<path d="M550.888 70.7803L527.952 57.5322C527.828 57.4649 527.724 57.3654 527.652 57.2442C527.581 57.1229 527.543 56.9845 527.543 56.8436V30.1606C527.542 30.0194 527.578 29.8803 527.648 29.7573C527.717 29.6344 527.818 29.532 527.94 29.4603C528.061 29.386 528.2 29.3467 528.343 29.3467C528.485 29.3467 528.624 29.386 528.745 29.4603L551.693 42.7084C551.818 42.7776 551.922 42.8792 551.993 43.0025C552.065 43.1257 552.103 43.2661 552.102 43.4087V70.08C552.103 70.2227 552.065 70.363 551.993 70.4863C551.922 70.6095 551.818 70.7111 551.693 70.7803C551.572 70.8501 551.435 70.8863 551.296 70.8854C551.153 70.8852 551.013 70.849 550.888 70.7803ZM529.154 31.5497V56.3767L550.491 68.691V43.864L529.154 31.5497Z" fill="#E0E0E0"/>
<path d="M550.888 116.104L527.952 102.868C527.828 102.797 527.724 102.696 527.653 102.573C527.581 102.449 527.543 102.31 527.543 102.167V75.4959C527.542 75.3547 527.578 75.2156 527.648 75.0926C527.717 74.9697 527.818 74.8673 527.94 74.7956C528.063 74.7271 528.202 74.6912 528.343 74.6912C528.483 74.6912 528.622 74.7271 528.745 74.7956L551.693 88.0904C551.818 88.1596 551.922 88.2612 551.993 88.3844C552.065 88.5077 552.103 88.648 552.102 88.7907V115.474C552.102 115.615 552.064 115.753 551.992 115.874C551.92 115.995 551.817 116.095 551.693 116.162C551.576 116.241 551.437 116.282 551.296 116.279C551.145 116.263 551.003 116.202 550.888 116.104ZM529.154 76.885V101.712L550.491 114.026V89.2576L529.154 76.885Z" fill="#E0E0E0"/>
<path d="M550.888 161.463L527.952 148.214C527.827 148.145 527.723 148.044 527.651 147.92C527.579 147.797 527.542 147.657 527.543 147.514V120.831C527.546 120.695 527.584 120.563 527.652 120.445C527.72 120.328 527.817 120.23 527.934 120.16C528.05 120.09 528.183 120.051 528.318 120.045C528.454 120.04 528.589 120.07 528.71 120.131L551.693 133.379C551.817 133.449 551.92 133.551 551.992 133.674C552.064 133.797 552.101 133.937 552.102 134.079V160.762C552.1 160.904 552.062 161.044 551.99 161.167C551.919 161.289 551.816 161.391 551.693 161.463C551.572 161.532 551.435 161.569 551.296 161.568C551.153 161.567 551.013 161.531 550.888 161.463ZM529.154 122.232V147.047L550.491 159.362V134.546L529.154 122.232Z" fill="#E0E0E0"/>
<path d="M538.737 147.467L533.402 136.169L535.865 133.811L539.425 141.398L551.891 129.375L553.677 133.099L538.737 147.467Z" fill="#1F5AB2"/>
<path d="M223.177 41.4011L200.229 28.1763C200.108 28.1066 200.008 28.0062 199.938 27.8853C199.868 27.7644 199.832 27.6272 199.832 27.4877V0.804756C199.833 0.662565 199.872 0.523163 199.943 0.400337C200.015 0.27751 200.117 0.175507 200.241 0.104414C200.364 0.0359361 200.502 0 200.643 0C200.784 0 200.923 0.0359361 201.046 0.104414L223.982 13.3875C224.104 13.4592 224.205 13.5616 224.274 13.6845C224.344 13.8075 224.38 13.9466 224.379 14.0879V40.7241C224.38 40.8654 224.344 41.0045 224.274 41.1274C224.205 41.2503 224.104 41.3528 223.982 41.4244C223.858 41.4967 223.717 41.5369 223.574 41.5412C223.431 41.5299 223.294 41.4816 223.177 41.4011ZM201.443 2.19376V27.0208L222.768 39.3351V14.5547L201.443 2.19376Z" fill="#E0E0E0"/>
<path d="M211.738 28.9467L206.403 17.6479L208.866 15.2901L212.426 22.8771L224.892 10.8546L226.678 14.5781L211.738 28.9467Z" fill="#1F5AB2"/>
<path d="M258.753 61.956L235.84 48.708C235.716 48.6406 235.613 48.5411 235.541 48.4199C235.469 48.2987 235.431 48.1602 235.432 48.0193V21.3364C235.431 21.1951 235.467 21.056 235.536 20.9331C235.606 20.8101 235.707 20.7077 235.829 20.636C235.952 20.5676 236.09 20.5316 236.231 20.5316C236.372 20.5316 236.511 20.5676 236.634 20.636L259.582 33.8841C259.706 33.9534 259.81 34.0549 259.882 34.1782C259.954 34.3014 259.991 34.4418 259.99 34.5845V61.244C259.985 61.4569 259.898 61.6597 259.749 61.8114C259.599 61.963 259.398 62.0523 259.185 62.0611C259.034 62.0644 258.885 62.0281 258.753 61.956ZM237.007 22.7254V47.5524L258.344 59.8667V35.0397L237.007 22.7254Z" fill="#E0E0E0"/>
<path d="M294.296 82.4876L271.36 69.2512C271.236 69.181 271.133 69.0792 271.061 68.9562C270.989 68.8332 270.951 68.6933 270.951 68.5509V41.868C270.95 41.7267 270.986 41.5876 271.056 41.4647C271.126 41.3417 271.226 41.2393 271.348 41.1676C271.471 41.0991 271.61 41.0632 271.751 41.0632C271.892 41.0632 272.03 41.0991 272.153 41.1676L295.101 54.4157C295.226 54.4849 295.33 54.5865 295.402 54.7098C295.474 54.833 295.511 54.9734 295.51 55.116V81.799C295.51 81.9399 295.472 82.0783 295.4 82.1996C295.328 82.3208 295.225 82.4203 295.101 82.4876C294.983 82.565 294.845 82.6056 294.704 82.6044C294.56 82.6058 294.418 82.5653 294.296 82.4876ZM272.562 43.257V68.084L293.899 80.3983V55.5829L272.562 43.257Z" fill="#E0E0E0"/>
<path d="M203.428 150.409L138.962 341.321L134.352 343.983L198.829 153.07L203.428 150.409Z" fill="#455A64"/>
<path d="M134.351 343.983L132.075 342.675L196.541 151.751L198.829 153.07L134.351 343.983Z" fill="#263238"/>
<path d="M198.829 306.76L196.541 305.452L132.075 188.986L134.351 190.293L198.829 306.76Z" fill="#263238"/>
<path d="M138.962 187.632L203.428 304.098L198.829 306.76L134.352 190.293L138.962 187.632Z" fill="#455A64"/>
<path d="M219.571 234.181V239.504L288.648 199.619V194.308L219.571 234.181Z" fill="#455A64"/>
<path d="M219.571 234.181V239.504L132.075 188.986V183.663L219.571 234.181Z" fill="#37474F"/>
<path d="M288.648 199.619L224.182 390.544L219.571 393.193L284.049 202.281L288.648 199.619Z" fill="#455A64"/>
<path d="M219.571 393.193L217.295 391.886L281.761 200.962L284.049 202.281L219.571 393.193Z" fill="#263238"/>
<path d="M284.049 355.97L281.761 354.663L217.295 238.196L219.571 239.504L284.049 355.97Z" fill="#263238"/>
<path d="M224.182 236.842L288.648 353.309L284.049 355.97L219.571 239.504L224.182 236.842Z" fill="#455A64"/>
<path d="M201.152 48.0659L182.71 58.7111C167.31 67.6035 154.523 80.3939 145.634 95.796C136.746 111.198 132.069 128.669 132.075 146.452V183.698L136.674 186.36L205.751 146.452V50.7389L201.152 48.0659Z" fill="#1F5AB2"/>
<path opacity="0.6" d="M201.152 48.0659L182.71 58.7111C167.31 67.6035 154.523 80.3939 145.634 95.796C136.746 111.198 132.069 128.669 132.075 146.452V183.698L136.674 186.36L205.751 146.452V50.7389L201.152 48.0659Z" fill="white"/>
<path opacity="0.6" d="M139.558 108.225L205.751 146.452V50.7389L201.152 48.0776L182.71 58.7227C163.225 69.9699 148.041 87.3876 139.558 108.225Z" fill="white"/>
<path d="M136.627 186.325V149.078C136.627 131.3 141.308 113.835 150.198 98.4392C159.089 83.0435 171.876 70.2595 187.273 61.3724L205.75 50.7389V146.452L136.627 186.325Z" fill="#1F5AB2"/>
<path opacity="0.7" d="M136.627 186.325V149.078C136.627 131.3 141.308 113.835 150.198 98.4392C159.089 83.0435 171.876 70.2595 187.273 61.3724L205.75 50.7389V146.452L136.627 186.325Z" fill="white"/>
<path d="M214.972 226.209L136.674 181.002L205.751 141.129L284.049 186.325L214.972 226.209Z" fill="#1F5AB2"/>
<path opacity="0.8" d="M214.972 226.209L136.674 181.002L205.751 141.129L284.049 186.325L214.972 226.209Z" fill="white"/>
<path d="M214.972 231.531V226.209L136.674 181.002V186.325L214.972 231.531Z" fill="#1F5AB2"/>
<path opacity="0.6" d="M214.972 231.531V226.209L136.674 181.002V186.325L214.972 231.531Z" fill="white"/>
<path opacity="0.3" d="M162.656 183.185L194.895 201.802L236.344 177.874L204.105 159.256L162.656 183.185Z" fill="#1F5AB2"/>
<path d="M162.656 181.294L194.895 199.899L236.344 175.971L204.105 157.366L162.656 181.294Z" fill="#FAFAFA"/>
<path d="M217.914 181.574C217.868 181.584 217.82 181.584 217.774 181.574L213.175 178.913C213.131 178.888 213.094 178.853 213.069 178.81C213.044 178.767 213.03 178.718 213.03 178.668C213.03 178.617 213.044 178.568 213.069 178.525C213.094 178.482 213.131 178.447 213.175 178.422L217.774 175.761C217.817 175.738 217.865 175.725 217.914 175.725C217.963 175.725 218.011 175.738 218.054 175.761L222.723 178.422C222.767 178.447 222.803 178.482 222.828 178.525C222.854 178.568 222.867 178.617 222.867 178.668C222.867 178.718 222.854 178.767 222.828 178.81C222.803 178.853 222.767 178.888 222.723 178.913L218.054 181.574C218.008 181.586 217.96 181.586 217.914 181.574ZM213.875 178.633L217.914 180.967L221.952 178.633L217.914 176.298L213.875 178.633Z" fill="#1F5AB2"/>
<path d="M208.704 186.896H208.564L203.965 184.235C203.922 184.21 203.885 184.175 203.858 184.132C203.832 184.089 203.816 184.04 203.813 183.99C203.813 183.939 203.827 183.889 203.854 183.845C203.881 183.802 203.919 183.767 203.965 183.745L208.564 181.084C208.605 181.055 208.654 181.04 208.704 181.04C208.754 181.04 208.803 181.055 208.844 181.084L213.455 183.745C213.498 183.77 213.533 183.806 213.558 183.849C213.583 183.892 213.595 183.94 213.595 183.99C213.592 184.039 213.578 184.087 213.554 184.129C213.53 184.172 213.496 184.208 213.455 184.235L208.844 186.896C208.798 186.908 208.75 186.908 208.704 186.896ZM204.666 183.955L208.704 186.29L212.743 183.955L208.704 181.621L204.666 183.955Z" fill="#1F5AB2"/>
<path d="M199.495 192.207C199.449 192.218 199.401 192.218 199.355 192.207L194.686 189.546C194.643 189.521 194.607 189.486 194.583 189.442C194.558 189.399 194.545 189.351 194.546 189.301C194.549 189.252 194.563 189.204 194.587 189.162C194.611 189.119 194.645 189.083 194.686 189.056L199.355 186.395C199.398 186.371 199.446 186.359 199.495 186.359C199.544 186.359 199.592 186.371 199.635 186.395L204.304 189.056C204.345 189.083 204.379 189.119 204.403 189.162C204.427 189.204 204.441 189.252 204.444 189.301C204.444 189.351 204.432 189.399 204.407 189.442C204.383 189.486 204.347 189.521 204.304 189.546L199.635 192.207C199.589 192.219 199.541 192.219 199.495 192.207ZM195.456 189.266L199.495 191.6L203.534 189.266L199.495 186.932L195.456 189.266Z" fill="#1F5AB2"/>
<path d="M210.969 175.259C210.871 175.258 210.775 175.234 210.689 175.189L196.869 167.217C196.739 167.139 196.645 167.014 196.606 166.868C196.567 166.723 196.586 166.567 196.659 166.435C196.736 166.305 196.862 166.212 197.009 166.174C197.155 166.137 197.311 166.16 197.441 166.237L211.249 174.209C211.358 174.269 211.444 174.365 211.493 174.48C211.542 174.595 211.551 174.723 211.519 174.843C211.487 174.964 211.415 175.071 211.316 175.146C211.216 175.221 211.094 175.261 210.969 175.259Z" fill="#E0E0E0"/>
<path d="M201.794 180.535C201.696 180.53 201.6 180.502 201.514 180.453L187.706 172.481C187.588 172.4 187.505 172.278 187.473 172.139C187.441 171.999 187.462 171.853 187.532 171.729C187.602 171.604 187.717 171.511 187.852 171.466C187.988 171.422 188.136 171.43 188.266 171.489L202.086 179.473C202.15 179.51 202.206 179.56 202.25 179.619C202.295 179.678 202.327 179.745 202.346 179.817C202.364 179.888 202.368 179.963 202.358 180.036C202.347 180.109 202.322 180.18 202.285 180.243C202.237 180.332 202.167 180.406 202.08 180.458C201.994 180.509 201.895 180.536 201.794 180.535Z" fill="#E0E0E0"/>
<path d="M192.655 185.788C192.554 185.788 192.454 185.764 192.364 185.718L178.555 177.745C178.426 177.668 178.332 177.543 178.292 177.397C178.253 177.251 178.272 177.096 178.345 176.963C178.382 176.9 178.432 176.844 178.491 176.799C178.55 176.755 178.617 176.722 178.689 176.704C178.761 176.685 178.835 176.681 178.908 176.692C178.982 176.702 179.052 176.727 179.115 176.765L192.935 184.737C193.064 184.813 193.158 184.936 193.197 185.08C193.236 185.223 193.218 185.377 193.146 185.508C193.096 185.593 193.024 185.665 192.938 185.714C192.852 185.763 192.755 185.789 192.655 185.788Z" fill="#E0E0E0"/>
<path d="M205.75 50.7272L284.048 95.9224L279.438 98.5837L201.151 53.3768L205.75 50.7272Z" fill="#1F5AB2"/>
<path opacity="0.8" d="M205.75 50.7272L284.048 95.9224L279.438 98.5837L201.151 53.3768L205.75 50.7272Z" fill="white"/>
<path d="M201.151 53.3768V143.791L279.438 188.986V98.5837L201.151 53.3768Z" fill="#1F5AB2"/>
<path opacity="0.6" d="M201.151 53.3768V143.791L279.438 188.986V98.5837L201.151 53.3768Z" fill="white"/>
<path d="M284.049 95.9224L265.607 106.568C250.209 115.462 237.423 128.253 228.535 143.654C219.647 159.056 214.969 176.526 214.973 194.308V231.555L219.572 234.204L288.648 194.308V98.5954L284.049 95.9224Z" fill="#1F5AB2"/>
<path opacity="0.6" d="M284.049 95.9224L265.607 106.568C250.209 115.462 237.423 128.253 228.535 143.654C219.647 159.056 214.969 176.526 214.973 194.308V231.555L219.572 234.204L288.648 194.308V98.5954L284.049 95.9224Z" fill="white"/>
<path opacity="0.6" d="M222.454 156.082L288.648 194.308V98.5954L284.049 95.9341L265.607 106.579C246.124 117.829 230.941 135.246 222.454 156.082Z" fill="white"/>
<path d="M219.571 234.181V196.935C219.572 179.156 224.252 161.691 233.143 146.296C242.033 130.9 254.82 118.116 270.217 109.229L288.648 98.5954V194.308L219.571 234.181Z" fill="#1F5AB2"/>
<path opacity="0.8" d="M219.571 234.181V196.935C219.572 179.156 224.252 161.691 233.143 146.296C242.033 130.9 254.82 118.116 270.217 109.229L288.648 98.5954V194.308L219.571 234.181Z" fill="white"/>
<path d="M249.757 156.724L247.668 162.093V165.128L247.353 165.314V162.245L245.252 159.303L245.649 159.081L247.166 161.264L247.516 161.813L247.843 160.879L249.372 156.934L249.757 156.724Z" fill="#455A64"/>
<path d="M252.466 162.478C250.913 163.365 250.131 162.478 250.131 160.144C250.047 159.163 250.218 158.176 250.627 157.281C251.036 156.385 251.669 155.61 252.466 155.031C254.018 154.144 254.8 155.16 254.8 157.366C254.896 158.348 254.73 159.338 254.32 160.236C253.91 161.133 253.271 161.907 252.466 162.478ZM252.466 155.475C251.763 155.993 251.206 156.682 250.846 157.477C250.486 158.272 250.337 159.146 250.411 160.015C250.411 161.789 250.995 162.957 252.466 162.093C253.164 161.593 253.72 160.92 254.08 160.141C254.44 159.361 254.592 158.501 254.52 157.646C254.52 155.883 253.96 154.623 252.466 155.463V155.475Z" fill="#455A64"/>
<path d="M260.028 150.806V154.728C260.028 156.969 259.351 158.498 257.904 159.338C256.456 160.179 255.768 159.432 255.768 157.19V153.257L256.071 153.082V157.05C256.071 158.836 256.585 159.712 257.904 158.953C258.544 158.513 259.053 157.907 259.374 157.199C259.695 156.491 259.816 155.709 259.724 154.938V150.981L260.028 150.806Z" fill="#455A64"/>
<path d="M265.422 154.903L265.071 155.113L264.418 153.595C264.126 152.895 263.682 152.743 262.912 153.187L261.476 154.016V157.132L261.173 157.307V150.094L263.379 148.821C264.313 148.285 265.025 148.518 265.025 149.895C265.027 150.391 264.924 150.881 264.723 151.334C264.522 151.786 264.227 152.191 263.857 152.522C264.278 152.522 264.546 152.813 264.721 153.21L265.422 154.903ZM263.402 149.23L261.465 150.397V153.584V153.654L263.332 152.58C263.757 152.327 264.109 151.968 264.355 151.538C264.6 151.109 264.73 150.623 264.733 150.129C264.733 148.938 264.149 148.786 263.402 149.23Z" fill="#455A64"/>
<path d="M235.948 192.604L231.595 178.878L234.921 176.963L236.801 183.582C237.548 186.185 237.851 187.27 237.863 187.328H237.921C237.921 187.247 238.225 185.823 238.96 182.438L240.863 173.567L244.026 171.734L239.672 190.492L235.948 192.604Z" fill="#1F5AB2"/>
<path d="M250.598 167.579C254.333 165.431 257.029 167.357 257.029 172.318C257.029 177.279 254.333 182.321 250.598 184.469C246.862 186.616 244.178 184.702 244.178 179.8C244.178 174.897 246.874 169.797 250.598 167.579ZM250.598 180.78C251.702 180.039 252.602 179.031 253.214 177.85C253.826 176.668 254.131 175.352 254.099 174.022C254.099 171.092 252.628 170.088 250.598 171.244C249.489 171.99 248.587 173.004 247.975 174.191C247.363 175.379 247.061 176.702 247.096 178.037C247.119 180.932 248.578 181.947 250.598 180.78Z" fill="#1F5AB2"/>
<path d="M264.278 163.634V176.251L261.36 177.944V165.314L257.625 167.474V163.855L268.002 157.856V161.486L264.278 163.634Z" fill="#1F5AB2"/>
<path d="M269.517 156.957L278.388 151.833V155.451L272.435 158.883V161.673L276.823 159.14V162.385L272.435 164.918V167.882L278.481 164.381V168.011L269.517 173.182V156.957Z" fill="#1F5AB2"/>
<path d="M243.933 200.32L243.641 200.483V194.18L243.267 195.627L241.481 201.825L239.684 197.67L239.31 196.678V203.004L239.007 203.168V195.954L239.287 195.803L241.213 200.25L241.493 200.962L241.762 199.935L243.699 193.258L243.968 193.095L243.933 200.32Z" fill="#455A64"/>
<path d="M249.547 197.075L249.208 197.273L248.59 195.721L245.555 197.472L244.948 199.724L244.609 199.923L246.944 191.367L247.212 191.204L249.547 197.075ZM248.485 195.371L247.317 192.324L247.177 191.776L247.014 192.488L245.847 196.923V196.993L248.485 195.371Z" fill="#455A64"/>
<path d="M253.352 188.04L251.391 189.208V195.989L251.088 196.164V189.371L249.127 190.538V190.165L253.352 187.655V188.04Z" fill="#455A64"/>
<path d="M257.81 185.473L255.849 186.64V193.421L255.546 193.596V186.756L253.597 187.924V187.539L257.775 185.122L257.81 185.473Z" fill="#455A64"/>
<path d="M262.188 189.78L258.546 191.881V184.667L262.188 182.566V182.951L258.814 184.889V187.83V187.889L261.861 186.126V186.511L258.814 188.274V191.227V191.285L262.188 189.336V189.78Z" fill="#455A64"/>
<path d="M267.476 186.721L267.126 186.932L266.472 185.414C266.181 184.714 265.737 184.562 264.967 185.006L263.531 185.834V188.951L263.228 189.126V181.912L265.434 180.64C266.367 180.103 267.079 180.337 267.079 181.714C267.082 182.209 266.979 182.7 266.778 183.152C266.576 183.605 266.281 184.01 265.912 184.34C266.332 184.34 266.613 184.632 266.776 185.029L267.476 186.721ZM265.457 181.06L263.519 182.169V185.356V185.426L265.387 184.352C265.812 184.099 266.164 183.74 266.409 183.31C266.655 182.881 266.785 182.395 266.788 181.901C266.788 180.757 266.192 180.628 265.457 181.06Z" fill="#455A64"/>
<path d="M269.914 185.402C269.621 185.624 269.271 185.757 268.905 185.786C268.538 185.815 268.172 185.738 267.848 185.566L268.093 185.099C268.368 185.265 268.686 185.348 269.008 185.335C269.329 185.323 269.64 185.216 269.902 185.029C270.374 184.798 270.778 184.449 271.075 184.015C271.372 183.581 271.551 183.078 271.594 182.554C271.594 181.901 271.221 181.562 270.427 181.726L269.435 181.924C268.455 182.099 267.929 181.924 267.929 180.99C267.977 180.37 268.183 179.772 268.528 179.255C268.874 178.738 269.347 178.318 269.902 178.037C270.158 177.84 270.466 177.723 270.789 177.703C271.111 177.682 271.432 177.758 271.711 177.92L271.478 178.376C271.248 178.216 270.975 178.13 270.696 178.13C270.416 178.13 270.143 178.216 269.914 178.376C269.461 178.593 269.071 178.92 268.779 179.328C268.487 179.737 268.303 180.212 268.245 180.71C268.245 181.481 268.781 181.516 269.634 181.352L270.544 181.177C271.571 180.99 271.945 181.457 271.945 182.263C271.924 182.921 271.724 183.562 271.366 184.115C271.008 184.669 270.506 185.114 269.914 185.402Z" fill="#455A64"/>
<path d="M272.084 143.581L272.96 145.436L274.921 144.689L273.497 147.339L273.835 149.744L272.084 149.533L270.334 151.763L270.672 148.973L269.26 147.958L271.209 146.452L272.084 143.581Z" fill="#1F5AB2"/>
<path d="M238.412 163.027L237.536 165.898L235.575 167.404L236.988 168.419L236.661 171.209L238.412 168.98L240.151 169.19L239.824 166.785L241.236 164.135L239.287 164.883L238.412 163.027Z" fill="#1F5AB2"/>
<path d="M383.403 360.394L338.593 496.797L334.181 499.353L378.991 362.938L383.403 360.394Z" fill="#455A64"/>
<path d="M334.181 499.353L331.998 498.092L376.796 361.69L378.991 362.938L334.181 499.353Z" fill="#263238"/>
<path d="M396.009 463.647L393.826 462.398L349.67 378.264L351.864 379.525L396.009 463.647Z" fill="#263238"/>
<path d="M356.276 376.969L400.433 461.103L396.021 463.647L351.864 379.513L356.276 376.969Z" fill="#455A64"/>
<path d="M321.586 324.7L276.776 461.103L272.364 463.647L317.174 327.245L321.586 324.7Z" fill="#455A64"/>
<path d="M272.364 463.647L270.182 462.398L314.992 325.984L317.174 327.245L272.364 463.647Z" fill="#263238"/>
<path d="M334.193 427.953L332.01 426.693L287.854 342.559L290.048 343.819L334.193 427.953Z" fill="#263238"/>
<path d="M294.46 341.263L338.616 425.397L334.193 427.953L290.048 343.819L294.46 341.263Z" fill="#455A64"/>
<path d="M329.78 394.816L259.116 354.021L334.193 310.67L404.868 351.465L329.78 394.816Z" fill="#455A64"/>
<path d="M329.78 399.916V394.816L404.868 351.465V356.565L329.78 399.916Z" fill="#37474F"/>
<path d="M329.78 399.916V394.816L259.116 354.021L259.14 359.098L329.78 399.916Z" fill="#263238"/>
<path d="M329.813 389.715V328.529L269.631 293.897V355.083L329.813 389.715Z" fill="#1F5AB2"/>
<path d="M329.813 328.528L394.361 291.235V352.433L329.813 389.715V328.528Z" fill="#1F5AB2"/>
<path opacity="0.15" d="M329.813 328.528L394.361 291.235V352.433L329.813 389.715V328.528Z" fill="white"/>
<path d="M329.813 328.528L267.938 292.916L334.179 254.643L396.042 290.255L329.813 328.528Z" fill="#1F5AB2"/>
<path opacity="0.3" d="M329.813 328.528L267.938 292.916L334.179 254.643L396.042 290.255L329.813 328.528Z" fill="white"/>
<path d="M329.813 328.528V339.454L267.938 303.853V292.916L329.813 328.528Z" fill="#1F5AB2"/>
<path d="M396.042 290.255L329.813 328.528V339.454L396.042 301.192V290.255Z" fill="#1F5AB2"/>
<path opacity="0.15" d="M396.042 290.255L329.813 328.528V339.454L396.042 301.192V290.255Z" fill="white"/>
<path opacity="0.1" d="M269.689 304.822V307.227L329.872 341.858V339.454L269.689 304.822ZM394.42 302.161L329.872 339.512V341.917L394.42 304.565V302.161Z" fill="black"/>
<path d="M312.107 297.924L320.943 303.025L351.863 285.166L343.027 280.077L312.107 297.924Z" fill="#1F5AB2"/>
<path opacity="0.2" d="M349.657 286.45L351.863 285.166L343.027 280.077L343.039 282.645L349.657 286.45Z" fill="black"/>
<path opacity="0.1" d="M314.325 299.196L343.027 282.621V280.077L312.107 297.924L314.325 299.196Z" fill="black"/>
<path d="M343.576 363.942L339.409 350.776L342.596 348.943L344.393 355.281C345.117 357.779 345.397 358.783 345.409 358.877H345.467C345.467 358.795 345.759 357.429 346.459 354.208L348.28 345.698L351.315 343.948L347.148 361.935L343.576 363.942Z" fill="#FAFAFA"/>
<path d="M357.63 339.944C361.202 337.89 363.781 339.734 363.781 344.496C363.781 349.259 361.202 354.079 357.63 356.169C354.058 358.258 351.467 356.379 351.467 351.628C351.467 346.877 354.058 342.01 357.63 339.944ZM357.63 352.608C358.686 351.894 359.546 350.925 360.129 349.791C360.712 348.656 361.001 347.394 360.968 346.119C360.968 343.317 359.567 342.349 357.63 343.457C356.571 344.175 355.71 345.148 355.126 346.286C354.543 347.425 354.256 348.692 354.292 349.971C354.292 352.749 355.692 353.729 357.63 352.608Z" fill="#FAFAFA"/>
<path d="M370.749 336.151V348.255L367.936 349.877V337.773L364.376 339.839V336.337L374.309 330.595V334.096L370.749 336.151Z" fill="#FAFAFA"/>
<path d="M375.768 329.789L384.277 324.875V328.377L378.569 331.668V334.341L382.771 331.913V335.03L378.569 337.458V340.306L384.405 336.956V340.458L375.814 345.418L375.768 329.789Z" fill="#FAFAFA"/>
<path d="M350.849 281.524L348.071 287.314L320.944 303.024L315.283 299.756L330.481 267.669L350.849 281.524Z" fill="#FAFAFA"/>
<path d="M490.297 374.541C490.834 377.179 491.826 380.225 492.631 385.606C493.437 390.987 492.188 391.209 496.063 404.702C498.397 412.791 497.966 416.013 492.561 422.841C486.725 430.159 480.667 428.677 476.699 420.576C473.314 413.655 473.512 410.433 473.5 403.255C473.489 396.076 473.419 393.987 473.057 388.291C472.742 383.272 473.197 379.84 472.858 376L490.297 374.541Z" fill="#37474F"/>
<path d="M492.094 394.209C491.008 387.205 490.751 380.05 490.354 375.346C489.467 364.841 491.813 344.006 490.168 328.167L460.858 325.494C461.839 331.668 469.939 359.589 472.881 376.443C472.881 376.443 474.048 399.321 475.647 409.394C475.716 409.706 475.854 409.998 476.05 410.249C476.246 410.501 476.495 410.706 476.78 410.849C477.065 410.992 477.379 411.069 477.698 411.076C478.016 411.083 478.333 411.019 478.624 410.888C482.845 409.197 487.5 408.914 491.895 410.083C492.203 410.199 492.533 410.241 492.86 410.205C493.187 410.17 493.5 410.058 493.776 409.878C494.051 409.698 494.28 409.456 494.444 409.171C494.608 408.887 494.702 408.567 494.72 408.239C494.661 404.515 492.911 399.426 492.094 394.209Z" fill="#B16668"/>
<path d="M408.007 319.833C409.093 341.426 409.315 357.896 409.081 367.199C409.091 371.799 408.223 376.359 406.525 380.634C404.972 384.579 402.276 390.275 400.035 392.785C400.035 392.785 392.81 400.523 394.199 401.247C395.588 401.971 410.482 402.893 416.376 401.247C422.271 399.601 424.547 394.641 426.788 385.595C429.029 376.548 431.037 363.3 431.037 363.3C430.776 362.812 430.583 362.289 430.465 361.748C429.753 359.098 432.577 345.839 433.348 339.244L408.007 319.833Z" fill="#B16668"/>
<path d="M436.336 376.63C436.103 378.871 434.41 381.521 433.838 385.023C433.167 389.013 432.893 393.059 433.021 397.103C433.15 402.052 433.161 402.753 433.161 402.753H431.632C431.632 402.753 431.445 395.609 431.375 392.47C431.305 389.33 429.788 386.575 428.282 386.272C428.282 386.307 428.913 376.817 436.336 376.63Z" fill="#263238"/>
<path d="M430.838 362.075C431.725 364.608 434.013 367.911 435.332 370.362C436.112 371.77 436.593 373.324 436.744 374.926C436.731 375.779 436.543 376.62 436.192 377.397C435.841 378.174 435.333 378.87 434.701 379.443C433.476 380.61 432.589 381.579 431.118 382.945C428.048 385.77 426.764 388.256 424.721 394.804C423.554 398.703 421.558 402.239 418.103 404.142C415.407 405.613 408.007 408.11 398.914 407.725C391.362 407.41 388.409 404.118 391.339 401.282C394.268 398.446 399.159 393.415 400.035 392.82C402.78 392.83 405.497 393.365 408.042 394.395C412.22 396.31 413.504 398.796 417.987 396.73C422.048 394.816 424.196 387.824 424.546 376.7C424.932 364.503 430.838 362.075 430.838 362.075Z" fill="#37474F"/>
<path d="M469.847 173.112C470.372 175.866 470.955 178.434 471.959 179.8C478.076 188.157 484.32 198.265 485.534 213.906C488.476 251.643 488.604 288.084 488.604 288.084C488.907 291.411 492.899 298.589 492.398 318.7C492.012 333.874 490.903 357.067 490.903 357.067C490.903 357.067 477.574 362.483 468.096 358.97C464.186 344.543 457.929 310.215 454.089 293.687C450.015 276.283 447.214 255.273 447.214 255.273L438.845 287.956C440.134 295.545 440.463 303.267 439.825 310.938C438.752 321.082 432.238 351.476 432.238 351.476C432.238 351.476 416.411 354.873 408.228 349.294C408.228 349.294 406.244 298.787 406.092 287.64C405.941 276.493 404.201 215.062 410.843 185.869C411.146 184.515 412.069 175.283 412.069 175.283C420.064 181.784 459.271 180.36 469.847 173.112Z" fill="#37474F"/>
<path d="M491.16 351.476C487.063 355.293 471.633 356.519 466.648 353.928L468.644 362.098C472.463 363.615 476.598 364.161 480.679 363.686C487.927 362.974 490.915 359.74 490.915 359.74L491.16 351.476Z" fill="#455A64"/>
<path d="M433.359 346.434C429.087 347.905 412.536 346.901 407.82 344.099L408.112 350.869C412.458 352.733 417.056 353.945 421.757 354.464C428.971 355.141 432.052 353.087 432.052 353.087L433.359 346.434Z" fill="#455A64"/>
<path d="M447.179 255.273L442.009 217.98C438.378 218.065 434.776 217.311 431.484 215.776C428.192 214.242 425.299 211.968 423.029 209.132C423.029 209.132 422.843 218.47 438.203 222.567L444.273 256.931L438.775 287.932L447.179 255.273Z" fill="#263238"/>
<path d="M377.25 148.553C372.92 145.296 369.628 142.869 364.62 134.873C363.225 132.981 361.593 131.274 359.765 129.796C358.026 128.142 356.599 126.189 355.551 124.029C355.096 122.944 352.33 124.111 352.866 127.87C353.275 130.659 354.968 133.204 355.645 134.791C354.174 134.791 351.816 134.593 348.641 134.791C345.466 134.99 339.105 134.651 340.272 138.293C340.529 139.11 341.194 139.799 341.217 140.628C341.19 141.022 341.123 141.413 341.019 141.795C340.878 142.557 340.946 143.344 341.215 144.071C341.484 144.798 341.945 145.439 342.548 145.927C342.849 146.107 343.108 146.35 343.307 146.639C343.634 147.269 343.389 148.039 343.529 148.705C343.709 149.466 344.092 150.164 344.637 150.724C345.42 151.564 345.676 151.273 346.458 152.113C346.972 152.662 347.077 153.876 348.279 154.681C349.178 155.276 351.337 155.346 353.637 155.311C355.936 155.276 357.244 156.035 360.302 155.942C362.706 155.872 364.971 157.226 368.974 161.334C377.939 169.878 379.082 172.668 387.125 179.193C387.835 179.78 388.575 180.329 389.342 180.839C396.953 186.08 399.964 182.006 405.976 171.419C413.364 158.404 417.193 151.028 417.193 151.028L429.052 115.672C421.745 116.501 413.154 124.765 406.664 134.138C403.618 138.538 391 157.914 391 157.914C386.705 155.241 381.592 151.81 377.25 148.553Z" fill="#B16668"/>
<path d="M351.722 136.951C352.043 137.04 352.355 137.157 352.656 137.301C352.967 137.452 353.25 137.653 353.496 137.896H353.403C354.865 137.614 356.379 137.849 357.686 138.562C358.013 138.762 358.305 139.014 358.55 139.309C358.826 139.633 358.967 140.05 358.947 140.476C358.935 140.701 358.862 140.919 358.737 141.106C358.578 141.28 358.371 141.402 358.142 141.456C357.768 141.538 357.43 141.585 357.079 141.655C356.391 141.795 355.714 142.028 355.002 142.192C354.283 142.356 353.543 142.411 352.807 142.355C351.365 142.249 349.941 141.963 348.57 141.503C349.269 141.665 349.979 141.774 350.695 141.83C351.407 141.911 352.107 141.993 352.819 142.005C353.518 142.014 354.215 141.939 354.897 141.783C355.585 141.62 356.262 141.375 356.974 141.211C357.336 141.129 357.71 141.071 358.025 140.989C358.34 140.908 358.433 140.791 358.48 140.441C358.538 139.857 358.013 139.274 357.453 138.947C356.233 138.25 354.822 137.96 353.426 138.118H353.368C353.161 137.874 352.912 137.668 352.632 137.511C352.345 137.299 352.041 137.111 351.722 136.951Z" fill="#9A4A4D"/>
<path d="M356.719 141.456C357.025 141.355 357.356 141.355 357.661 141.459C357.966 141.562 358.23 141.762 358.411 142.028C358.589 142.317 358.677 142.652 358.664 142.99C358.652 143.329 358.54 143.656 358.341 143.931C357.732 145.07 356.781 145.988 355.622 146.557C355.003 146.748 354.354 146.827 353.707 146.791C353.085 146.791 352.466 146.767 351.852 146.72C350.614 146.639 349.389 146.557 348.151 146.417C349.389 146.359 350.626 146.347 351.863 146.335C353.066 146.437 354.278 146.358 355.458 146.102C355.995 145.863 356.485 145.531 356.906 145.121C357.338 144.701 357.729 144.239 358.073 143.744C358.256 143.524 358.37 143.255 358.401 142.971C358.432 142.686 358.379 142.399 358.248 142.145C358.103 141.879 357.875 141.668 357.599 141.544C357.323 141.419 357.014 141.389 356.719 141.456Z" fill="#9A4A4D"/>
<path d="M356.182 145.985C356.448 145.866 356.736 145.805 357.028 145.805C357.32 145.805 357.608 145.866 357.874 145.985C358.015 146.058 358.138 146.16 358.234 146.285C358.331 146.41 358.399 146.555 358.434 146.709C358.487 147.01 358.487 147.318 358.434 147.619C358.232 148.178 357.891 148.676 357.442 149.067C357.056 149.526 356.569 149.89 356.018 150.129C355.446 150.239 354.86 150.27 354.279 150.222C353.732 150.256 353.186 150.319 352.645 150.409C351.548 150.584 350.439 150.771 349.33 150.923C350.404 150.572 351.478 150.292 352.575 150.047C353.13 149.91 353.697 149.82 354.267 149.779C354.803 149.808 355.341 149.769 355.867 149.662C356.349 149.46 356.779 149.153 357.127 148.763C357.527 148.423 357.849 148.001 358.073 147.526C358.12 147.275 358.12 147.018 358.073 146.767C358.057 146.647 358.015 146.532 357.948 146.431C357.881 146.329 357.792 146.245 357.687 146.184C357.23 145.926 356.69 145.855 356.182 145.985Z" fill="#9A4A4D"/>
<path d="M356.415 149.65C356.53 149.694 356.635 149.761 356.724 149.848C356.812 149.934 356.882 150.038 356.928 150.152C357.02 150.39 357.048 150.647 357.01 150.899C356.907 151.361 356.746 151.808 356.531 152.23C356.414 152.439 356.285 152.642 356.146 152.837C356.002 153.042 355.814 153.213 355.598 153.339C355.208 153.588 354.788 153.788 354.349 153.934L355.376 153.035C355.533 152.904 355.671 152.751 355.784 152.58C355.901 152.396 356.006 152.205 356.099 152.008C356.311 151.635 356.49 151.244 356.636 150.841C356.725 150.643 356.751 150.424 356.712 150.211C356.672 149.998 356.568 149.802 356.415 149.65Z" fill="#9A4A4D"/>
<path d="M358.714 140.417C358.527 142.461 359.148 144.496 360.444 146.087C361.74 147.677 363.608 148.697 365.647 148.927C364.152 148.973 362.668 148.649 361.328 147.981C360.219 147.464 359.247 146.692 358.492 145.728L358.27 146.662C357.979 146.172 357.838 145.752 356.508 145.88C357.105 145.326 357.631 144.698 358.072 144.012C358.469 143.242 359.041 142.028 357.407 141.305C357.747 141.263 358.081 141.176 358.399 141.048C358.522 141.003 358.623 140.912 358.681 140.795C358.74 140.678 358.752 140.543 358.714 140.417Z" fill="#9A4A4D"/>
<path d="M430.044 114.657C419.702 116.548 416.037 116.629 405.369 133.904C398.797 144.514 390.813 157.459 390.813 157.459L383.156 152.79C384.58 154.226 387.37 161.614 385.491 166.167C384.283 168.957 382.141 171.24 379.433 172.621C382.054 175.356 384.858 177.911 387.825 180.267C391.98 183.43 394.186 183.908 396.708 183.161C399.229 182.414 401.692 179.66 407.808 172.411C414.099 164.953 421.465 153.969 421.465 153.969L430.044 114.657Z" fill="#1F5AB2"/>
<path opacity="0.55" d="M430.044 114.657C419.702 116.548 416.037 116.629 405.369 133.904C398.797 144.514 390.813 157.459 390.813 157.459L383.156 152.79C384.58 154.226 387.37 161.614 385.491 166.167C384.283 168.957 382.141 171.24 379.433 172.621C382.054 175.356 384.858 177.911 387.825 180.267C391.98 183.43 394.186 183.908 396.708 183.161C399.229 182.414 401.692 179.66 407.808 172.411C414.099 164.953 421.465 153.969 421.465 153.969L430.044 114.657Z" fill="white"/>
<path opacity="0.35" d="M390.812 157.459C394.886 159.945 398.796 165.221 399.485 168.338C399.472 165.717 398.793 163.143 397.513 160.857C396.233 158.57 394.393 156.646 392.166 155.265L390.812 157.459Z" fill="#1F5AB2"/>
<path opacity="0.35" d="M383.238 176.193C383.922 175.832 384.568 175.402 385.164 174.909C386.384 173.941 387.414 172.753 388.199 171.407C389.672 168.784 390.238 165.748 389.809 162.77C389.809 162.618 389.949 162.618 389.984 162.77C390.761 165.943 390.266 169.294 388.607 172.108C387.761 173.513 386.665 174.751 385.374 175.761C384.848 176.166 384.294 176.532 383.716 176.858L383.145 176.345L383.238 176.193Z" fill="#1F5AB2"/>
<path d="M452.724 110.443L469.252 115.579C472.088 116.548 482.815 123.096 479.068 139.227C477.831 144.573 476.138 152.066 474.609 159.548C473.442 165.268 477.726 176.275 481.181 193.807C481.181 193.807 467.011 205.082 438.845 201.907C417.357 199.479 409.279 190.235 409.279 190.235C409.069 173.508 412.618 162.922 414.205 156.549C414.205 156.549 411.801 153.549 411.661 146.744C411.532 139.612 415.816 133.367 422.166 125.29C425.582 120.869 429.499 116.858 433.838 113.338L452.724 110.443Z" fill="#FAFAFA"/>
<path d="M415.886 90.2965C415.174 87.962 412.489 87.7052 411.917 84.4603C411.345 81.2154 413.084 79.1144 415.675 77.6904C418.267 76.2663 418.815 73.6868 418.29 68.3525C417.765 63.0183 421.57 59.8084 425.97 59.1547C428.141 58.8396 430.639 59.0613 432.192 57.4739C432.787 56.7142 433.278 55.878 433.651 54.9877C435.752 51.1125 439.65 49.42 444.868 49.455C447.21 49.426 449.535 49.8624 451.708 50.739C454.206 51.6915 456.459 53.1911 458.303 55.1278C461.162 54.6726 466.543 55.2912 469.461 57.8591C470.733 58.7627 471.811 59.912 472.631 61.2392C473.451 62.5664 473.996 64.0445 474.235 65.5862C474.726 68.7494 474.434 70.5469 475.8 72.2627C478.578 75.7644 482.044 75.7644 483.62 78.7059C485.861 82.9079 480.34 86.5146 483.153 91.5454C483.738 92.5306 484.093 93.6348 484.193 94.776C484.293 95.9173 484.135 97.0664 483.73 98.1382C483.325 99.21 482.685 100.177 481.855 100.967C481.026 101.758 480.029 102.351 478.939 102.704C476.488 103.638 474.387 102.377 470.885 103.685C467.384 104.992 467.244 107.665 462.785 109.521C459.143 110.98 456.027 108.354 453.074 107.968C449.035 107.501 450.331 108.832 446.35 106.276C444.985 105.4 444.168 103.836 442.79 102.973C438.425 100.358 436.954 101.805 431.702 103.673C430.324 104.175 425.749 105.447 422.632 101.992C420.769 99.7278 419.805 96.8565 419.924 93.9266C419.037 96.8447 412.337 96.7863 411.66 92.1524C411.959 92.6232 412.417 92.9714 412.951 93.1338C413.484 93.2962 414.059 93.2622 414.569 93.0379C415.08 92.8136 415.494 92.4138 415.735 91.9109C415.976 91.408 416.03 90.8353 415.886 90.2965Z" fill="#263238"/>
<path d="M459.038 106.883C459.038 104.222 459.575 97.4516 459.575 97.4516C460.555 99.9495 465.084 100.043 467.302 96.9614C470.103 93.0628 470.092 88.4289 468.189 85.6042C466.076 82.476 461.057 82.3943 458.851 87.2383C455.536 87.857 454.287 82.7795 457.007 78.1223C457.065 66.9985 441.95 70.7454 438.903 60.7538C436.29 61.2347 433.822 62.3087 431.689 63.8932C429.556 65.4777 427.816 67.5303 426.601 69.8933C425.433 72.3678 425.235 73.8852 425.515 78.8926C425.62 80.8419 424.278 83.1063 423.893 85.6859C422.107 97.51 425.585 102.226 429.46 104.525C431.526 105.692 434.211 106.544 439.148 106.86C439.148 106.86 439.055 109.077 438.962 110.548C438.868 112.019 438.705 112.661 436.931 112.882C436.324 112.964 435.647 113.011 435.647 113.011C435.647 113.011 427.476 120.551 438.238 122.524C454.299 125.465 460.719 115.672 461.431 113.186C458.956 112.672 458.921 111.342 459.038 106.883Z" fill="#B16668"/>
<path d="M443.933 93.9266L438.004 95.514C438.083 95.9158 438.244 96.2971 438.475 96.6347C438.707 96.9724 439.005 97.2592 439.351 97.4777C439.698 97.6962 440.085 97.8418 440.49 97.9055C440.894 97.9693 441.307 97.9499 441.704 97.8485C442.517 97.6194 443.207 97.0793 443.624 96.3452C444.041 95.6111 444.152 94.7421 443.933 93.9266Z" fill="#9A4A4D"/>
<path d="M443.503 95.2339C442.724 95.1758 441.95 95.3895 441.311 95.8386C440.673 96.2877 440.21 96.9444 440.001 97.6967C440.555 97.8729 441.151 97.8729 441.705 97.6967C442.269 97.5361 442.777 97.2218 443.173 96.7889C443.569 96.3561 443.837 95.8217 443.946 95.2455C443.794 95.2806 443.608 95.2455 443.503 95.2339Z" fill="#F28F8F"/>
<path d="M428.492 76.0096L432.846 74.2003C432.739 73.9144 432.576 73.6531 432.365 73.4322C432.155 73.2113 431.901 73.0355 431.621 72.9154C431.34 72.7954 431.038 72.7336 430.733 72.7337C430.428 72.7339 430.126 72.796 429.846 72.9164C429.27 73.1647 428.811 73.622 428.559 74.1962C428.308 74.7703 428.284 75.4184 428.492 76.0096Z" fill="#263238"/>
<path d="M449.677 77.4569L445.451 75.2509C445.589 74.9731 445.78 74.7255 446.014 74.5225C446.248 74.3195 446.521 74.1651 446.815 74.0684C447.109 73.9717 447.42 73.9346 447.729 73.9593C448.038 73.9839 448.339 74.0698 448.614 74.212C449.166 74.5211 449.582 75.0263 449.778 75.6273C449.975 76.2284 449.939 76.8814 449.677 77.4569Z" fill="#263238"/>
<path d="M439.125 106.836C446.63 106.439 455.081 103.79 457.8 99.7161C457.8 99.7161 456.703 103.86 453.657 105.611C449.183 108.06 444.155 109.322 439.055 109.276L439.125 106.836Z" fill="#9A4A4D"/>
<path d="M447.179 82.5227C447.182 82.918 447.067 83.305 446.849 83.6348C446.631 83.9645 446.32 84.2222 445.955 84.375C445.591 84.5279 445.189 84.5691 444.801 84.4934C444.413 84.4177 444.057 84.2285 443.776 83.9499C443.496 83.6712 443.305 83.3156 443.227 82.9281C443.149 82.5406 443.188 82.1387 443.338 81.7733C443.489 81.4079 443.745 81.0955 444.073 80.8756C444.402 80.6558 444.788 80.5384 445.183 80.5384C445.711 80.5384 446.217 80.7471 446.591 81.1189C446.965 81.4907 447.176 81.9954 447.179 82.5227Z" fill="#263238"/>
<path d="M432.845 81.6006C432.845 81.9959 432.728 82.3822 432.508 82.7107C432.288 83.0392 431.976 83.295 431.611 83.4457C431.245 83.5965 430.843 83.6353 430.456 83.5573C430.068 83.4794 429.713 83.2881 429.434 83.0078C429.155 82.7275 428.966 82.3707 428.89 81.9828C428.815 81.5949 428.856 81.1932 429.009 80.8287C429.162 80.4642 429.419 80.1532 429.749 79.9353C430.079 79.7174 430.466 79.6023 430.861 79.6046C431.123 79.6046 431.382 79.6563 431.623 79.7568C431.865 79.8572 432.084 80.0045 432.268 80.1899C432.453 80.3754 432.599 80.5956 432.698 80.8377C432.797 81.0798 432.847 81.3391 432.845 81.6006Z" fill="#263238"/>
<path d="M430.522 89.3977L436.942 92.1174L438.635 79.3128L430.522 89.3977Z" fill="#9A4A4D"/>
<path d="M464.71 95.7825C464.694 95.997 464.636 96.2064 464.539 96.3985C464.442 96.5906 464.308 96.7617 464.145 96.9021C463.982 97.0424 463.793 97.1493 463.588 97.2165C463.384 97.2838 463.168 97.3101 462.954 97.294C462.739 97.2779 462.53 97.2197 462.338 97.1227C462.146 97.0257 461.974 96.8919 461.834 96.7287C461.694 96.5656 461.587 96.3764 461.52 96.172C461.452 95.9676 461.426 95.7519 461.442 95.5373C461.475 95.1039 461.678 94.7012 462.007 94.4177C462.337 94.1343 462.765 93.9933 463.199 94.0258C463.632 94.0583 464.035 94.2616 464.318 94.5911C464.602 94.9205 464.743 95.3491 464.71 95.7825Z" fill="#EBEBEB"/>
<path d="M438.81 111.552C438.04 111.832 432.881 113.466 430.044 114.657C423.288 120.114 417.638 126.814 413.399 134.394C410.435 140.032 408.894 144.9 408.731 154.097C408.602 162.093 407.633 185.846 406.046 199.059C406.91 202.152 415.547 205.829 415.547 205.829C415.991 193.947 416.201 156.712 418.769 144.083C421.815 129.095 435.238 115.404 438.367 113.256L438.81 111.552Z" fill="#1F5AB2"/>
<path d="M459.05 110.63V113.081C451.626 132.387 453.085 141.234 454.031 153.934C456.284 184.282 459.867 210.498 459.867 210.498C459.867 210.498 481.064 210.72 488.616 200.507C488.616 200.507 481.823 185.169 479.278 169.68C477.772 160.494 482.056 141.666 480.445 128.372C479.792 122.816 477.691 117.271 473.524 115.964C470.08 114.878 467.092 114.003 467.092 114.003L459.05 110.63Z" fill="#1F5AB2"/>
<path d="M485.406 216.871C488.767 217.828 493.051 213.65 494.23 212.202C495.409 210.755 493.891 207.3 493.179 204.393C492.467 201.487 493.179 196.573 489.584 197.95C485.989 199.328 478.414 209.039 485.406 216.871Z" fill="#9A4A4D"/>
<path d="M474.2 116.699C485.079 118.964 486.141 118.637 491.277 128.967C497.265 140.989 505.739 160.622 507.875 165.151C510.011 169.68 512.077 173.077 506.323 180.138C501.198 186.43 486.059 204.545 483.807 207.136C481.822 209.471 484.052 216.194 490.88 215.214C490.88 215.214 485.686 219.813 482.826 219.299C480.363 218.867 474.142 215.074 470.582 207.627C468.341 202.958 470.22 199.211 473.628 193.958C477.702 187.69 487.787 170.917 487.787 170.917L472.788 140.954C472.788 140.954 466.251 124.987 474.2 116.699Z" fill="#B16668"/>
<path d="M473.546 115.964C470.908 118.59 466.718 128.442 472.554 142.682L487.25 170.964L480.701 181.469C480.701 181.469 485.37 187.55 489.304 190.328C490.374 191.135 491.6 191.708 492.905 192.012C494.21 192.315 495.564 192.342 496.879 192.091C496.879 192.091 505.295 182.753 508.271 178.656C511.248 174.559 511.773 173.38 507.98 164.182C504.315 155.311 492.666 128.302 490.168 124.17C487.67 120.038 484.46 117.271 473.546 115.964Z" fill="#1F5AB2"/>
<path opacity="0.55" d="M473.546 115.964C470.908 118.59 466.718 128.442 472.554 142.682L487.25 170.964L480.701 181.469C480.701 181.469 485.37 187.55 489.304 190.328C490.374 191.135 491.6 191.708 492.905 192.012C494.21 192.315 495.564 192.342 496.879 192.091C496.879 192.091 505.295 182.753 508.271 178.656C511.248 174.559 511.773 173.38 507.98 164.182C504.315 155.311 492.666 128.302 490.168 124.17C487.67 120.038 484.46 117.271 473.546 115.964Z" fill="white"/>
<path opacity="0.35" d="M490.297 182.438C489.196 181.593 488.162 180.664 487.204 179.66C486.262 178.688 485.399 177.642 484.624 176.532C484.496 176.345 484.344 176.076 484.227 175.878L483.726 176.672C483.818 176.8 483.904 176.932 483.982 177.068C484.763 178.171 485.621 179.216 486.55 180.197C487.497 181.196 488.524 182.118 489.62 182.951C490.761 183.902 492.03 184.688 493.39 185.286C493.764 185.426 493.787 184.912 493.554 184.737C492.433 183.92 491.301 183.243 490.297 182.438Z" fill="#1F5AB2"/>
<path d="M180.106 410.422C181.016 410.34 181.04 412.558 180.468 413.62C178.857 416.678 174.351 419.969 167.757 421.428C161.162 422.888 148.264 421.148 144.412 420.997C140.56 420.845 133.755 422.841 129.857 423.46C122.76 424.627 117.904 422.642 115.581 420.366C115.2 419.904 114.917 419.368 114.75 418.792C114.583 418.216 114.537 417.611 114.613 417.016C114.683 414.32 114.916 413.771 115.219 413.795L180.106 410.422Z" fill="#37474F"/>
<path d="M115.931 405.928C115.25 409.121 115.038 412.396 115.301 415.651C116.13 417.658 118.324 418.802 120.075 419.351C124.744 420.81 129.273 420.518 134.373 419.444C137.659 418.601 141.044 418.209 144.435 418.277C148.474 418.499 157.38 419.444 161.43 419.444C165.21 419.501 168.961 418.778 172.448 417.32C175.121 416.071 179.172 413.328 180.082 411.25C180.958 406.406 180.456 403.511 177.666 401.912C174.876 400.313 170.476 399.823 164.64 399.38C162.901 399.251 160.694 399.146 159.761 399.041C156.259 398.656 152.932 398.399 150.259 398.224C147.981 398.244 145.728 397.753 143.665 396.788C142.714 396.363 141.944 395.615 141.493 394.676C140.933 393.438 140.945 391.629 139.859 391.524C139.859 391.524 119.9 394.921 118.289 395.084C116.445 395.271 117.659 397.944 115.931 405.928Z" fill="#455A64"/>
<path d="M161.336 398.866C161.939 399.339 162.44 399.931 162.806 400.605C163.209 401.341 163.515 402.125 163.717 402.94C163.985 403.955 162.725 404.107 162.234 402.94C161.869 401.965 161.391 401.037 160.81 400.173C160.394 399.57 159.778 399.132 159.071 398.936L158.067 398.831C158.336 398.107 160.554 398.352 161.336 398.866Z" fill="#FAFAFA"/>
<path d="M152.325 397.815C152.661 397.768 153.003 397.795 153.327 397.894C153.652 397.993 153.951 398.161 154.204 398.387C154.859 398.944 155.348 399.671 155.616 400.488C155.965 401.469 156.234 402.476 156.422 403.5C156.492 404.154 154.951 404.13 154.788 403.418C154.624 402.706 154.274 401.41 153.994 400.675C153.819 400.22 153.025 398.504 151.963 398.341H151.484C151.484 398.107 151.776 397.955 151.986 397.909C152.096 397.866 152.209 397.835 152.325 397.815Z" fill="#FAFAFA"/>
<path d="M147.037 397.652C147.492 397.739 147.903 397.978 148.204 398.329C148.564 398.81 148.844 399.346 149.033 399.916C149.352 400.96 149.509 402.047 149.5 403.138C149.5 403.978 147.983 403.757 147.936 403.138C147.773 401.364 147.773 400.197 146.921 398.901C146.602 398.337 146.149 397.86 145.602 397.512C145.602 397.36 145.87 397.337 146.022 397.372C146.365 397.447 146.704 397.54 147.037 397.652Z" fill="#FAFAFA"/>
<path d="M116.048 373.584C116.048 373.584 117.775 391.944 118.207 396.181C118.347 397.535 120.915 398.084 122.234 398.656C123.882 399.271 125.416 400.154 126.775 401.27C130.125 404.597 132.611 405.379 134.677 399.543C134.744 399.261 134.871 398.997 135.049 398.767C135.226 398.538 135.45 398.349 135.707 398.214C135.963 398.078 136.245 397.998 136.534 397.98C136.824 397.961 137.114 398.005 137.385 398.107C138.51 398.492 139.699 398.659 140.887 398.597C141.062 398.481 140.957 398.212 140.887 398.037C140.366 397.389 139.993 396.637 139.791 395.831C139.59 395.025 139.565 394.185 139.719 393.368C140.291 385.851 140.606 378.323 141.038 370.794L116.048 373.584Z" fill="#FFBDA7"/>
<path d="M51.7559 360.114C54.0903 356.32 54.8724 349.27 56.5765 336.174L78.1587 347.298L68.9258 369.965C68.5449 370.949 68.252 371.965 68.0504 373C65.4241 376.724 51.7559 360.114 51.7559 360.114Z" fill="#FFBDA7"/>
<path d="M44.5894 368.226C44.5894 368.004 44.496 366.207 44.5894 365.997C45.0913 364.071 46.2818 363.534 47.8109 362.495C49.3442 361.461 50.7507 360.251 52.0013 358.888C52.5149 358.176 52.6082 357.814 53.402 357.488C54.7559 356.939 56.9037 356.892 59.6116 358.305C64.0121 360.639 65.3544 363.394 65.0976 366.405C64.9109 368.74 64.7124 371.751 66.7434 373.117C67.5838 373.689 68.9145 370.012 68.9145 370.012C70.1634 372.113 68.4126 375.008 67.4904 379.245C66.9626 381.589 66.9229 384.016 67.3737 386.377C67.8173 390.1 68.3309 390.077 70.3035 390.345C72.0076 390.567 76.84 390.24 79.7697 392.294C83.82 395.119 82.7345 398.878 82.7345 398.878C82.2092 400.313 77.8088 407.247 61.7243 404.655C57.0554 403.908 47.2506 396.578 47.4024 395.889C47.4839 395.188 47.4839 394.479 47.4024 393.777C47.4024 392.143 47.274 390.497 47.204 388.851C47.2554 387.289 47.1616 385.726 46.9238 384.182C46.6309 382.907 46.432 381.611 46.3285 380.307C46.025 377.004 45.7099 373.7 45.4064 370.397C45.2897 369.393 44.4143 369.148 44.5894 368.226Z" fill="#455A64"/>
<path d="M42.5583 367.561C40.9708 369.09 41.9397 373.549 44.064 378.895C45.0095 381.229 46.7603 385.338 46.2467 389.68C45.7332 394.022 45.6398 396.065 46.7603 398.107C48.5112 401.282 57.8607 405.356 63.37 406.628C60.0367 401.961 58.0941 396.445 57.7673 390.719C57.207 381.136 56.4834 374.961 52.1062 370.724C46.5619 365.343 42.5583 367.561 42.5583 367.561Z" fill="black"/>
<path d="M82.7347 398.831C82.7347 398.831 79.5132 404.877 67.0705 404.667C62.1681 404.585 59.5535 402.204 59.4251 394.757C59.285 385.781 58.5613 376.723 55.6666 372.276C52.7719 367.829 48.138 365.658 44.5546 365.973C43.7153 366.23 43.0029 366.792 42.5586 367.549C42.5586 367.549 46.142 366.382 51.733 371.051C55.8534 374.471 56.9622 381.614 56.9039 390.485C56.9039 394.302 56.6471 398.656 57.7676 401.527C58.2823 402.8 59.0877 403.935 60.1193 404.841C61.1509 405.747 62.3802 406.399 63.7088 406.745C70.4671 408.636 79.7233 405.507 82.0694 402.648C82.4626 402.104 82.7269 401.477 82.8421 400.816C82.9574 400.155 82.9207 399.476 82.7347 398.831Z" fill="#37474F"/>
<path d="M67.7593 388.664C68.2632 389.02 68.6201 389.547 68.7631 390.147C68.8156 390.913 68.6613 391.679 68.3163 392.364C67.9713 393.05 67.4484 393.631 66.8022 394.045C66.0551 394.512 65.4015 394.349 66.5921 392.773C67.3577 391.54 67.7621 390.116 67.7593 388.664Z" fill="#FAFAFA"/>
<path d="M67.1166 384.019C67.1166 384.019 67.5135 384.276 67.6186 385.524C67.6186 386.19 66.6264 388.886 65.2841 389.528C63.9418 390.17 64.6888 388.653 65.2841 387.917C66.1833 386.774 66.81 385.441 67.1166 384.019Z" fill="#FAFAFA"/>
<path d="M67.5607 378.895C67.5607 378.895 67.9926 379.011 67.5607 380.727C66.9404 381.787 65.9829 382.609 64.841 383.062C64.0006 383.155 63.5921 382.735 64.6309 381.988C65.4246 381.439 67.4089 379.723 67.5607 378.895Z" fill="#FAFAFA"/>
<path d="M75.6145 355.97C75.6145 355.97 79.5714 346.691 93.6599 315.187C97.9203 305.651 99.0292 298.577 100.103 293.897C101.27 289.029 106.033 265.043 106.033 265.043L112.172 304.939C110.981 310.117 110.251 315.39 109.99 320.696C109.99 327.28 110.818 337.283 112.686 350.858C115.534 371.599 116.304 382.373 116.304 382.373C117.763 383.423 122.397 385.466 130.311 385.023C133.929 384.651 137.457 383.668 140.746 382.116C140.746 382.116 142.544 360.534 143.291 345.488C143.979 331.598 145.123 315.899 145.707 307.518C146.874 291.784 147.178 285.002 147.341 260.199C147.504 234.52 145.543 196.655 145.543 196.655L72.5797 194.974C72.5797 194.974 67.7824 205.689 69.2531 227.843C68.6812 249.472 65.4713 290.64 65.4713 290.64C61.4559 300.378 58.8576 310.641 57.7559 321.117C56.682 331.342 55.0596 344.811 55.0596 344.811C62.8333 344.531 71.3308 349.55 75.6145 355.97Z" fill="#1F5AB2"/>
<path opacity="0.2" d="M106.091 265.253L102.064 236.667C102.064 236.667 92.5974 235.932 81.2285 226.466C81.2285 226.466 82.7226 234.94 98.8537 240.729L103.067 270.482L100.009 294.69C100.009 294.69 106.021 265.801 106.091 265.253Z" fill="black"/>
<path d="M163.005 168.524L165.538 168.956L167.043 171.069C166.821 171.544 166.706 172.062 166.706 172.586C166.706 173.111 166.821 173.629 167.043 174.104C167.826 175.656 168.958 175.166 168.958 175.166L170.125 172.353L170.592 168.443L167.405 165.63L164.277 165.011L163.005 168.524Z" fill="#B16668"/>
<path d="M172.202 167.24C172.535 168.343 172.575 169.514 172.319 170.637C172.041 171.652 171.682 172.644 171.245 173.602C170.918 174.29 169.634 174.29 168.841 172.563C168.187 171.139 169.109 167.964 169.109 167.964L172.202 167.24Z" fill="#F0997A"/>
<path d="M176.976 163.318C177.326 165.116 178.4 168.489 178.598 169.797C178.797 171.104 177.174 170.964 177.174 170.964L173.346 165.455L176.976 163.318Z" fill="#F0997A"/>
<path d="M162.619 149.954C164.335 149.253 164.3 149.23 166.658 150.479C169.859 152.268 172.915 154.305 175.797 156.572C177.385 157.996 176.964 160.762 176.964 163.143C176.964 165.525 177.396 168.092 176.964 168.758C176.906 168.853 176.829 168.935 176.738 169C176.648 169.065 176.545 169.111 176.435 169.135C176.326 169.159 176.214 169.16 176.104 169.14C175.994 169.119 175.89 169.077 175.797 169.015L162.619 149.954Z" fill="#FFBDA7"/>
<path d="M177.572 171.489L179.626 178.656C179.637 178.702 179.634 178.751 179.617 178.795C179.6 178.839 179.569 178.877 179.53 178.904C179.491 178.93 179.444 178.944 179.397 178.944C179.349 178.943 179.303 178.929 179.264 178.901L173.253 174.466L177.572 171.489Z" fill="#FFA8A7"/>
<path d="M179.299 178.913L173.253 174.466L175.587 172.901L176.113 173.66L179.463 178.691L179.299 178.913Z" fill="#F28F8F"/>
<path d="M179.264 178.901C179.303 178.929 179.349 178.943 179.397 178.944C179.444 178.944 179.491 178.93 179.53 178.904C179.569 178.877 179.6 178.839 179.617 178.795C179.634 178.751 179.637 178.702 179.626 178.656L179.218 177.255C179.11 177.47 178.942 177.65 178.735 177.772C178.528 177.894 178.29 177.954 178.05 177.944H177.922L179.264 178.901Z" fill="#263238"/>
<path d="M152.477 144.514L152.873 145.075L153.34 145.763L173.253 174.466C174.074 174.63 174.926 174.484 175.646 174.057C176.144 173.817 176.579 173.462 176.913 173.022C177.248 172.582 177.474 172.068 177.572 171.524L157.636 142.834L156.725 141.526C157.297 142.413 153.025 145.39 152.477 144.514Z" fill="#455A64"/>
<path d="M152.477 144.514L152.873 145.075L153.34 145.763L173.253 174.466C173.753 174.562 174.268 174.548 174.762 174.425C175.256 174.302 175.717 174.073 176.113 173.754L155.383 143.534C155.465 143.476 155.465 143.429 155.383 143.406C154.262 144.281 152.78 145.005 152.477 144.514Z" fill="#37474F"/>
<path d="M153.958 146.674L154.845 147.934C155.09 148.308 156.012 148.004 156.993 147.456C158.265 146.744 159.444 145.437 159.117 144.935L158.475 144.001L158.242 143.674C158.557 144.176 157.378 145.483 156.106 146.195C155.184 146.72 154.273 147.024 153.993 146.709L153.958 146.674Z" fill="#EBEBEB"/>
<path d="M154.134 146.989C154.706 147.864 158.978 144.853 158.417 143.989L157.635 142.717C158.196 143.592 153.924 146.592 153.352 145.717L154.134 146.989Z" fill="#37474F"/>
<path d="M152.477 144.514L153.34 145.763C153.889 146.627 158.009 143.767 157.671 142.834L156.784 141.573C157.297 142.413 153.025 145.39 152.477 144.514Z" fill="#EBEBEB"/>
<path d="M179.521 178.913C179.488 178.93 179.452 178.939 179.416 178.939C179.379 178.939 179.343 178.93 179.311 178.913C179.343 178.93 179.379 178.939 179.416 178.939C179.452 178.939 179.488 178.93 179.521 178.913Z" fill="#FFA8A7"/>
<path d="M150.632 141.923L152.464 144.514C152.698 144.888 153.632 144.584 154.589 144.047C155.861 143.335 157.063 142.028 156.748 141.526L154.904 138.923C154.168 137.861 151.846 139.098 150.865 140.429C150.681 140.626 150.56 140.874 150.518 141.14C150.476 141.407 150.516 141.679 150.632 141.923Z" fill="#F28F8F"/>
<path opacity="0.1" d="M152.406 142.11C152.998 141.918 153.536 141.591 153.98 141.156C154.423 140.721 154.76 140.188 154.963 139.6C155.003 139.458 155.008 139.309 154.977 139.164C154.947 139.02 154.882 138.885 154.788 138.772C153.935 138.001 151.799 139.168 150.877 140.429C150.697 140.623 150.578 140.866 150.534 141.128C150.49 141.389 150.525 141.658 150.632 141.9C150.912 142.297 151.578 142.402 152.406 142.11Z" fill="black"/>
<path d="M163.075 159.793C164.861 161.626 166.857 162.128 170.3 163.073C171.928 163.716 173.469 164.559 174.888 165.583C176.253 166.505 176.895 168.209 174.281 169.423C172.53 170.24 170.312 169.225 168.444 168.863C167.51 168.685 166.559 168.607 165.608 168.629C162.9 168.793 162.433 169.657 159.375 170.345C156.317 171.034 153.877 170.275 152.173 170.567C150.469 170.859 110.69 182.776 110.69 182.776L110.27 160.599C110.27 160.599 143.524 158.101 148.882 157.179C153.224 156.42 158.359 152.872 158.359 152.872L163.075 159.793Z" fill="#FFBDA7"/>
<path d="M152.231 156.175C151.136 156.643 149.993 156.991 148.823 157.214C143.465 158.136 110.211 160.634 110.211 160.634L110.631 182.811C110.631 182.811 150.41 170.905 152.115 170.602C152.503 170.562 152.894 170.562 153.282 170.602L152.231 156.175Z" fill="#F0997A"/>
<path d="M172.004 157.202C171.734 157.575 171.342 157.841 170.896 157.954C170.45 158.068 169.979 158.02 169.564 157.821C168.864 157.447 166.541 155.615 166.541 155.615L172.377 163.984C172.187 163.249 172.216 162.474 172.459 161.754C172.632 161.497 172.854 161.277 173.112 161.107C173.371 160.937 173.66 160.82 173.965 160.762C173.311 160.66 172.642 160.802 172.085 161.159C171.664 160.931 171.302 160.606 171.032 160.21C170.762 159.814 170.591 159.359 170.533 158.883C172.027 157.844 172.004 157.202 172.004 157.202Z" fill="#F0997A"/>
<path d="M72.0657 103.906C67.2334 113.139 67.5952 123.598 68.9959 136.589C70.2799 148.518 71.1786 155.918 72.2758 170.684C73.5948 187.504 71.2604 198.149 71.2604 198.149C71.2604 198.149 81.0534 211.747 102.087 217.105C139.042 226.512 146.839 214.338 146.839 214.338C146.839 214.338 146.512 201.499 146.558 191.519C146.558 182.519 146.395 171.863 146.092 163.003C145.38 142.658 145.146 125.757 142.788 118.508C141.049 114.493 139.228 112.906 134.781 110.886C131.116 109.217 124.124 105.832 118.907 103.813C109.315 100.344 99.5519 97.3672 89.6559 94.8953C86.1597 94.4722 82.6167 95.1041 79.4823 96.7098C76.3478 98.3155 73.7651 100.822 72.0657 103.906Z" fill="#37474F"/>
<path d="M121.591 94.8953L118.93 103.813C112.65 104.011 98.3984 101.479 95.4336 98.6188L98.1766 88.0904L121.591 94.8953Z" fill="#FFBDA7"/>
<path d="M142.531 69.5197C142.531 69.5197 144.948 72.146 145.718 79.8731L141.049 82.2075C140.594 76.7566 140.127 71.2355 142.531 69.5197Z" fill="#F0997A"/>
<path d="M135.61 47.0272C143.267 48.9764 146.115 56.6802 141.749 72.6129C142.286 89.9696 136.077 95.6541 133.579 97.4399C128.233 99.1441 123.214 98.6072 116.829 95.6774C111.962 93.3429 99.7056 87.1683 95.8187 78.1689C91.1498 67.5354 92.1653 52.84 99.9507 48.743C110.806 42.9185 131.559 46 135.61 47.0272Z" fill="#FFBDA7"/>
<path d="M135.027 86.1061C135.116 86.1471 135.196 86.2068 135.26 86.2812C135.26 86.2812 135.26 86.4096 135.354 86.4679C135.425 86.6042 135.503 86.7366 135.587 86.8648C135.773 87.1399 135.993 87.3909 136.241 87.6118C136.705 88.0048 137.224 88.3273 137.782 88.5689C137.802 88.5779 137.82 88.5926 137.832 88.6112C137.845 88.6298 137.851 88.6516 137.852 88.674C137.866 88.6988 137.874 88.727 137.874 88.7557C137.874 88.7844 137.866 88.8126 137.852 88.8374C137.735 88.9308 137.525 88.8374 137.385 88.8374C137.224 88.7945 137.067 88.7359 136.918 88.6623C136.593 88.5079 136.288 88.316 136.008 88.0904C135.735 87.874 135.491 87.6229 135.284 87.3434C135.18 87.2067 135.086 87.0623 135.004 86.9115L134.887 86.7014C134.84 86.5693 134.84 86.4249 134.887 86.2928C134.887 86.2928 134.934 86.0594 135.027 86.1061Z" fill="#F0997A"/>
<path d="M133.52 97.4282C132.108 98.4204 124.801 99.3308 120.681 98.0819L121.638 94.8837C125.464 96.2704 129.462 97.1266 133.52 97.4282Z" fill="#F0997A"/>
<path d="M133.976 58.5244C133.8 59.8399 133.211 61.0658 132.295 62.0261C131.004 63.3556 129.283 64.1831 127.439 64.3606C128.151 66.6242 128.315 69.0245 127.918 71.3639C127.844 72.1077 127.547 72.8117 127.066 73.3833C126.905 73.5954 126.687 73.7582 126.439 73.8531C126.19 73.948 125.919 73.9713 125.658 73.9202C125.397 73.8692 125.155 73.7459 124.96 73.5643C124.765 73.3827 124.625 73.1502 124.556 72.893C124.222 71.5491 123.732 70.2486 123.097 69.0178C122.25 67.5482 120.891 66.4426 119.28 65.913C113.176 64.1621 111.366 73.8385 113.257 77.5853C116.35 83.7016 120.331 80.8769 120.331 80.8769C120.331 80.8769 120.903 89.5378 114.249 92.024C114.249 92.024 103.884 93.5647 97.9082 89.0125C93.2392 81.7523 88.8971 73.5934 87.9984 67.0452C86.0374 52.7933 90.3328 44.7044 96.6242 43.5371C98.3634 38.5064 103.779 36.1719 108.763 35.3665C115.533 34.1993 121.335 37.3975 127.848 38.5414C131.186 39.1311 134.614 38.9554 137.874 38.0278C139.322 37.6193 141.084 37.129 142.146 38.1562C142.551 38.5848 142.815 39.1262 142.905 39.7086C143.118 40.7368 143.086 41.8008 142.813 42.8145C142.539 43.8283 142.031 44.7635 141.329 45.5448C143.255 44.646 146.173 45.7315 147.656 47.389C149.768 49.7235 149.733 52.1396 148.274 55.1861C147.364 56.9953 142.17 62.5747 133.976 58.5244Z" fill="#263238"/>
<path d="M96.7299 44.9028L91.4189 40.444C92.0239 39.7433 92.8817 39.3106 93.8047 39.2406C94.7278 39.1706 95.641 39.469 96.3447 40.0704C96.6922 40.3591 96.9784 40.7144 97.1865 41.1154C97.3946 41.5164 97.5203 41.955 97.5561 42.4054C97.592 42.8557 97.5374 43.3087 97.3955 43.7376C97.2536 44.1665 97.0273 44.5627 96.7299 44.9028Z" fill="#263238"/>
<path d="M202.481 205.07C201.104 203.693 199.726 202.467 198.582 201.382C197.637 200.483 196.411 199.246 194.31 196.935C193.423 195.943 192.443 196.433 190.598 195.826C188.754 195.219 189.303 193.76 188.147 193.211C186.793 192.558 186.326 192.966 185.019 192.359C183.408 191.624 182.58 189.896 180.607 190.632C177.047 191.951 175.938 193.596 171.001 189.056C158.838 177.815 151.344 170.637 151.344 170.637C151.344 170.637 149.01 139.857 148.053 132.76C146.711 123.131 147.014 116.419 134.42 112.31C134.42 112.31 124.323 116.979 125.082 135.247C125.77 151.039 127.615 166.598 128.583 174.209C129.365 180.629 130.509 181.434 138.552 186.99C158.301 200.647 161.348 202.829 163.834 204.428C167.172 206.576 170.615 209.097 174.339 209.342C177.759 209.518 182.661 207.276 185.054 205.969C188.894 203.88 192.057 202.794 193.283 203.098C194.509 203.401 196.785 205.829 199.119 206.459C201.454 207.09 203.158 205.736 202.481 205.07Z" fill="#FFBDA7"/>
<path d="M134.804 110.886C140.64 113.536 142.975 114.925 146.033 119.909C148.052 123.201 148.367 126.772 149.243 135.503C149.978 143.137 150.994 157.681 150.994 157.681C150.994 157.681 149.686 161.182 141.2 163.949C136.3 165.63 130.969 165.568 126.108 163.774C126.108 163.774 124.439 148.541 123.867 142.238C123.085 133.694 122.443 117.271 134.804 110.886Z" fill="#1F5AB2"/>
<path d="M353.394 36.9306L387.5 56.6568C388.166 57.0537 388.668 57.9991 388.668 59.82V101.502C388.668 101.222 388.119 102.167 387.442 102.541L382.598 105.295C382.219 105.485 381.802 105.584 381.378 105.584C380.955 105.584 380.537 105.485 380.159 105.295L346.052 85.5692C345.707 85.3319 345.421 85.0174 345.219 84.6507C345.016 84.284 344.902 83.8751 344.885 83.4565V41.7746C344.907 41.3522 345.03 40.9413 345.243 40.5759C345.457 40.2105 345.754 39.9012 346.11 39.6736L350.954 36.9189C351.335 36.7334 351.752 36.638 352.175 36.64C352.599 36.642 353.015 36.7414 353.394 36.9306V36.9306Z" fill="#1F5AB2"/>
<path opacity="0.2" d="M380.205 105.284C380.584 105.471 381.002 105.568 381.425 105.568C381.848 105.568 382.265 105.471 382.645 105.284L387.489 102.529C388.166 102.156 388.714 101.21 388.714 101.49V59.82C388.824 59.0208 388.69 58.2071 388.329 57.4855L381.057 61.6642C381.291 62.0377 381.419 62.4696 381.419 61.816V103.486C381.419 105.295 380.917 105.704 380.205 105.284Z" fill="black"/>
<path opacity="0.3" d="M344.896 41.5528C345.002 40.9342 345.503 40.7241 346.064 41.0626L380.159 60.8005C380.52 61.0211 380.814 61.3358 381.011 61.7109L388.283 57.5322C388.081 57.174 387.792 56.8728 387.442 56.6568L353.347 36.9306C352.969 36.7406 352.551 36.6417 352.127 36.6417C351.704 36.6417 351.286 36.7406 350.908 36.9306L346.064 39.6853C345.751 39.8995 345.486 40.176 345.285 40.4973C345.085 40.8187 344.952 41.178 344.896 41.5528V41.5528Z" fill="white"/>
<path d="M392.052 89.6778C392.811 89.2226 398.647 85.9427 398.834 85.8259C398.971 85.7339 399.086 85.614 399.173 85.4742C399.26 85.3343 399.316 85.1777 399.338 85.0145C399.36 84.8514 399.347 84.6854 399.301 84.5275C399.254 84.3696 399.175 84.2234 399.067 84.0984L388.749 72.216L381.419 76.4181L392.251 87.9737C392.356 88.0959 392.434 88.2386 392.482 88.3927C392.529 88.5469 392.543 88.7091 392.525 88.8692C392.506 89.0293 392.455 89.1838 392.373 89.3229C392.292 89.4621 392.183 89.5829 392.052 89.6778V89.6778Z" fill="#1F5AB2"/>
<path opacity="0.3" d="M392.052 89.6778C392.811 89.2226 398.647 85.9427 398.834 85.8259C398.971 85.7339 399.086 85.614 399.173 85.4742C399.26 85.3343 399.316 85.1777 399.338 85.0145C399.36 84.8514 399.347 84.6854 399.301 84.5275C399.254 84.3696 399.175 84.2234 399.067 84.0984L388.749 72.216L381.419 76.4181L392.251 87.9737C392.356 88.0959 392.434 88.2386 392.482 88.3927C392.529 88.5469 392.543 88.7091 392.525 88.8692C392.506 89.0293 392.455 89.1838 392.373 89.3229C392.292 89.4621 392.183 89.5829 392.052 89.6778V89.6778Z" fill="white"/>
<path d="M346.098 41.0743L380.205 60.8005C380.551 61.0346 380.836 61.3467 381.039 61.7117C381.242 62.0767 381.356 62.4843 381.372 62.9015V76.4181L392.251 87.9737C392.399 88.1227 392.501 88.3111 392.545 88.5164C392.589 88.7217 392.573 88.9354 392.5 89.1321C392.426 89.3287 392.297 89.5001 392.129 89.6258C391.961 89.7515 391.76 89.8263 391.55 89.8412L381.407 89.0942V104.583C381.407 105.354 380.87 105.669 380.24 105.284L346.133 85.5575C345.788 85.3202 345.503 85.0058 345.3 84.639C345.098 84.2723 344.983 83.8634 344.966 83.4448V41.7746C344.884 40.9926 345.433 40.6774 346.098 41.0743Z" fill="#1F5AB2"/>
<path d="M359.23 84.9972H358.88C358.447 84.9368 358.035 84.7698 357.683 84.511C357.33 84.2522 357.048 83.9099 356.86 83.5148L352.658 74.6672C352.363 74.0388 352.329 73.3187 352.564 72.6652C352.799 72.0118 353.285 71.4787 353.913 71.183C354.541 70.8874 355.262 70.8535 355.915 71.0888C356.568 71.3241 357.102 71.8094 357.397 72.4378L359.883 77.5853L371.894 63.5785C372.359 63.046 373.015 62.7199 373.72 62.6717C374.425 62.6235 375.12 62.8574 375.653 63.3217C376.185 63.7861 376.511 64.4429 376.56 65.1478C376.608 65.8526 376.374 66.5477 375.91 67.0802L361.261 84.1335C361.006 84.4168 360.692 84.6409 360.341 84.7901C359.99 84.9393 359.611 85.01 359.23 84.9972V84.9972Z" fill="#FAFAFA"/>
</svg>
