<svg width="613" height="342" viewBox="0 0 613 342" fill="none" xmlns="http://www.w3.org/2000/svg">
<path d="M596.511 132.159L590.021 148.76L594.622 150.559L601.111 133.957L596.511 132.159Z" fill="#367CFF"/>
<path d="M191.154 91.4491L187.475 94.7445L199.367 108.023L203.046 104.727L191.154 91.4491Z" fill="#0CBC8B"/>
<path d="M245.676 150.879L231.409 161.566L234.371 165.519L248.637 154.833L245.676 150.879Z" fill="#367CFF"/>
<path d="M410.682 28.2509L407.297 31.8481L420.279 44.0639L423.664 40.4666L410.682 28.2509Z" fill="#367CFF"/>
<path d="M316.288 32.2232L307.404 47.677L311.687 50.1388L320.571 34.685L316.288 32.2232Z" fill="#0CBC8B"/>
<path d="M445.297 164.378L441.12 167.015L450.633 182.089L454.81 179.453L445.297 164.378Z" fill="#0CBC8B"/>
<path d="M251.598 237.783L247.18 239.991L255.146 255.937L259.565 253.729L251.598 237.783Z" fill="#0CBC8B"/>
<path d="M186.95 195.827L181.831 212.901L186.562 214.32L191.681 197.245L186.95 195.827Z" fill="#367CFF"/>
<path d="M496.163 249.032L481.358 258.96L484.11 263.063L498.914 253.135L496.163 249.032Z" fill="#367CFF"/>
<path d="M498.381 -4.10998e-05L489.497 15.4534L493.779 17.9151L502.663 2.46173L498.381 -4.10998e-05Z" fill="#0CBC8B"/>
<path d="M4.60058 126.426L0 128.224L6.48912 144.826L11.0897 143.028L4.60058 126.426Z" fill="#0CBC8B"/>
<path d="M482.171 105.916L479.209 109.87L493.475 120.556L496.437 116.602L482.171 105.916Z" fill="#0CBC8B"/>
<path d="M81.428 33.0849L68.4463 45.3007L71.8313 48.8979L84.813 36.6822L81.428 33.0849Z" fill="#367CFF"/>
<path d="M225.215 18.5378L220.933 20.9996L229.817 36.4534L234.099 33.9916L225.215 18.5378Z" fill="#367CFF"/>
<path d="M50.5488 212.568L41.0361 227.643L45.2134 230.279L54.7261 215.204L50.5488 212.568Z" fill="#0CBC8B"/>
<path d="M8.4144 253.862L5.66309 257.967L20.4756 267.895L23.2269 263.791L8.4144 253.862Z" fill="#367CFF"/>
<path d="M579.89 57.0093L575.607 59.4711L584.491 74.9245L588.773 72.4627L579.89 57.0093Z" fill="#367CFF"/>
<path d="M394.303 99.1235L382.411 112.402L386.091 115.697L397.983 102.419L394.303 99.1235Z" fill="#367CFF"/>
<path d="M289.905 248.79L281.938 264.735L286.357 266.943L294.323 250.997L289.905 248.79Z" fill="#0CBC8B"/>
<path d="M354.555 206.835L349.824 208.253L354.943 225.327L359.674 223.909L354.555 206.835Z" fill="#367CFF"/>
<path d="M356.149 216.578L339.313 203.781C338.943 203.5 338.518 203.299 338.066 203.191C337.615 203.082 337.145 203.07 336.688 203.153C336.231 203.236 335.796 203.414 335.411 203.674C335.027 203.935 334.7 204.272 334.453 204.666C334.02 205.407 333.877 206.282 334.052 207.122C334.227 207.962 334.708 208.708 335.401 209.213L339.011 211.957L323.698 208.539C322.003 208.129 319.659 208.711 319.325 210.644C319.148 211.379 319.225 212.153 319.544 212.839C319.863 213.525 320.405 214.082 321.082 214.42C321.074 214.435 321.068 214.451 321.063 214.467C321.062 214.48 321.062 214.493 321.063 214.505L318.448 213.874C317.963 213.757 317.459 213.75 316.971 213.853C316.484 213.956 316.025 214.166 315.629 214.469C315.233 214.771 314.91 215.158 314.682 215.602C314.455 216.045 314.329 216.534 314.315 217.032C314.307 217.817 314.57 218.58 315.058 219.195C315.546 219.81 316.231 220.238 316.997 220.408L318.108 220.677C318.115 220.713 318.129 220.747 318.148 220.778C317.354 220.771 316.583 221.047 315.974 221.556C315.364 222.065 314.956 222.774 314.821 223.557C314.699 224.417 314.905 225.292 315.4 226.007C315.894 226.722 316.64 227.224 317.488 227.413L320.253 228.081C320.208 228.099 320.167 228.128 320.135 228.165C320.103 228.202 320.08 228.246 320.068 228.294C320.057 228.351 320.063 228.41 320.085 228.465C319.376 228.655 318.749 229.072 318.3 229.653C317.852 230.234 317.607 230.947 317.602 231.681C317.614 232.452 317.885 233.196 318.372 233.794C318.86 234.392 319.534 234.807 320.287 234.974L343.61 240.608C346.873 241.396 350.297 241.192 353.443 240.022C356.589 238.851 359.314 236.768 361.269 234.039C362.954 231.686 363.656 228.769 363.224 225.907C362.792 223.045 361.262 220.464 358.957 218.713L356.149 216.578Z" fill="#E98862"/>
<g opacity="0.2">
<path d="M336.222 217.879C336.203 217.958 336.153 218.025 336.085 218.067C336.016 218.11 335.934 218.124 335.855 218.106L321.296 214.833C321.256 214.825 321.219 214.808 321.186 214.785C321.152 214.761 321.124 214.731 321.102 214.697C321.081 214.663 321.066 214.625 321.059 214.585C321.052 214.545 321.053 214.504 321.062 214.464C321.071 214.425 321.088 214.387 321.111 214.354C321.135 214.321 321.164 214.293 321.199 214.271C321.233 214.249 321.271 214.235 321.311 214.228C321.351 214.221 321.392 214.222 321.431 214.231L335.99 217.503C336.03 217.512 336.067 217.529 336.101 217.552C336.134 217.576 336.162 217.606 336.184 217.64C336.206 217.674 336.22 217.713 336.227 217.753C336.234 217.793 336.233 217.834 336.224 217.874L336.222 217.879Z" fill="#0C0C0C"/>
</g>
<g opacity="0.2">
<path d="M334.957 224.34C334.938 224.419 334.888 224.487 334.819 224.53C334.749 224.572 334.666 224.586 334.587 224.567L318.339 220.918C318.299 220.909 318.262 220.892 318.228 220.869C318.195 220.845 318.167 220.816 318.145 220.781C318.123 220.747 318.109 220.708 318.102 220.668C318.095 220.628 318.096 220.587 318.106 220.547C318.126 220.469 318.176 220.401 318.245 220.357C318.313 220.314 318.396 220.298 318.476 220.314L334.724 223.963C334.764 223.972 334.801 223.989 334.834 224.012C334.868 224.036 334.896 224.065 334.918 224.1C334.939 224.134 334.954 224.173 334.961 224.213C334.968 224.253 334.966 224.294 334.957 224.333V224.34Z" fill="#0C0C0C"/>
</g>
<g opacity="0.2">
<path d="M333.628 231.346C333.608 231.424 333.559 231.491 333.49 231.534C333.422 231.576 333.339 231.59 333.26 231.572L320.3 228.662C320.22 228.644 320.15 228.595 320.107 228.526C320.063 228.456 320.048 228.373 320.066 228.293C320.084 228.213 320.133 228.143 320.202 228.099C320.271 228.056 320.355 228.041 320.435 228.059L333.396 230.97C333.435 230.978 333.473 230.995 333.506 231.018C333.54 231.042 333.568 231.072 333.59 231.106C333.612 231.141 333.626 231.179 333.633 231.219C333.64 231.259 333.639 231.3 333.63 231.34L333.628 231.346Z" fill="#0C0C0C"/>
</g>
<path d="M276.219 128.554L285.619 109.61C285.825 109.194 286.116 108.825 286.473 108.527C286.83 108.23 287.245 108.01 287.691 107.881C288.138 107.753 288.606 107.719 289.066 107.781C289.527 107.844 289.969 108.001 290.365 108.244C291.083 108.715 291.601 109.435 291.818 110.266C292.034 111.097 291.935 111.978 291.539 112.74L289.523 116.802L301.723 106.939C303.06 105.819 305.418 105.3 306.576 106.883C307.061 107.463 307.335 108.19 307.354 108.946C307.373 109.702 307.135 110.443 306.679 111.046C306.693 111.056 306.705 111.067 306.716 111.08C306.723 111.091 306.729 111.102 306.734 111.114L308.797 109.385C309.179 109.065 309.628 108.835 310.111 108.71C310.593 108.586 311.097 108.571 311.587 108.666C312.076 108.761 312.538 108.964 312.938 109.261C313.339 109.557 313.669 109.939 313.903 110.379C314.258 111.079 314.362 111.879 314.198 112.647C314.033 113.414 313.61 114.102 313 114.595L312.122 115.33C312.131 115.366 312.135 115.402 312.131 115.439C312.839 115.079 313.652 114.984 314.424 115.169C315.196 115.354 315.877 115.808 316.345 116.449C316.837 117.166 317.04 118.042 316.914 118.902C316.788 119.762 316.343 120.543 315.666 121.089L313.486 122.915C313.535 122.911 313.585 122.918 313.63 122.937C313.676 122.956 313.716 122.985 313.748 123.023C313.783 123.069 313.805 123.125 313.81 123.184C314.529 123.039 315.276 123.134 315.936 123.456C316.596 123.777 317.132 124.307 317.462 124.963C317.794 125.658 317.882 126.446 317.711 127.198C317.539 127.95 317.12 128.622 316.519 129.105L298.125 144.513C295.552 146.668 292.394 148.006 289.056 148.355C285.717 148.704 282.35 148.048 279.387 146.471C276.833 145.111 274.909 142.809 274.024 140.053C273.14 137.298 273.364 134.306 274.65 131.714L276.219 128.554Z" fill="#E98862"/>
<g opacity="0.2">
<path d="M294.649 120.868C294.702 120.93 294.776 120.969 294.857 120.977C294.938 120.984 295.019 120.959 295.082 120.908L306.673 111.512C306.737 111.46 306.778 111.385 306.786 111.304C306.795 111.222 306.77 111.141 306.719 111.077C306.667 111.014 306.592 110.973 306.511 110.965C306.43 110.956 306.348 110.98 306.284 111.032L294.693 120.428C294.63 120.48 294.589 120.554 294.581 120.635C294.572 120.716 294.596 120.797 294.647 120.86L294.649 120.868Z" fill="#0C0C0C"/>
</g>
<g opacity="0.2">
<path d="M298.653 126.095C298.705 126.157 298.78 126.196 298.861 126.204C298.942 126.211 299.022 126.186 299.085 126.135L312.022 115.649C312.085 115.597 312.125 115.523 312.133 115.442C312.142 115.361 312.118 115.28 312.067 115.216C312.014 115.156 311.94 115.117 311.86 115.109C311.779 115.1 311.699 115.122 311.635 115.171L298.694 125.655C298.631 125.706 298.59 125.781 298.582 125.861C298.573 125.942 298.597 126.023 298.648 126.087L298.653 126.095Z" fill="#0C0C0C"/>
</g>
<g opacity="0.2">
<path d="M302.956 131.78C303.008 131.842 303.083 131.882 303.163 131.889C303.244 131.897 303.325 131.872 303.388 131.82L313.707 123.456C313.771 123.404 313.811 123.33 313.82 123.248C313.828 123.167 313.804 123.085 313.752 123.022C313.701 122.958 313.626 122.917 313.545 122.909C313.463 122.9 313.382 122.925 313.318 122.976L302.996 131.341C302.933 131.392 302.893 131.466 302.885 131.547C302.876 131.628 302.9 131.709 302.951 131.773L302.956 131.78Z" fill="#0C0C0C"/>
</g>
<path d="M65.264 112.311C65.264 112.311 63.9384 132.202 59.4638 139.417C46.5803 160.192 42.8478 183.564 55.7493 195.775C68.6507 207.986 150.94 208.155 157.174 180.07C162.423 156.425 151.16 153.883 148.419 134.38C147.179 125.554 143.768 107.047 143.768 107.047" fill="#0A0A0A"/>
<path d="M135.877 175.953C135.735 175.934 134.158 202.089 103.773 199.809C82.7385 198.233 75.2384 175.914 74.7568 175.914C77.0247 175.432 80.8436 174.731 81.8506 174.194C85.1632 172.414 89.2599 170.562 90.3293 164.129C90.9468 160.425 89.9002 141.456 90.2219 137.703L122.51 144.912C122.059 152.834 118.901 171.2 129.969 174.45C131.81 174.989 133.794 175.483 135.877 175.953Z" fill="#E98862"/>
<path opacity="0.5" d="M122.963 166.945C122.457 165.316 122.131 163.635 121.992 161.934C121.637 158.053 121.708 154.145 122.203 150.279C115.64 149.393 109.458 146.684 104.359 142.46C103.759 144.674 100.461 154.35 101.375 156.454C103.099 160.432 111.208 166.945 122.963 166.945Z" fill="#0C0C0C"/>
<path d="M118.788 158.797C106.058 160.032 89.5868 154.937 86.1749 137.984L83.0963 122.687C79.6843 105.735 85.8223 90.1999 101.784 86.9874C117.746 83.7767 132.442 95.116 135.854 112.069L137.217 118.841C138.526 125.346 141.501 156.599 118.788 158.797Z" fill="#E98862"/>
<path opacity="0.1" d="M110.696 136.582C112.791 136.332 114.341 134.884 114.158 133.347C113.974 131.81 112.127 130.767 110.032 131.017C107.938 131.267 106.388 132.716 106.571 134.252C106.755 135.789 108.601 136.832 110.696 136.582Z" fill="#0C0C0C"/>
<path opacity="0.1" d="M132.833 130.439C133.018 131.973 134.867 133.015 136.962 132.768C137.324 132.724 137.681 132.643 138.026 132.526C138.124 130.697 138.129 128.937 138.076 127.308C137.494 127.162 136.89 127.127 136.295 127.203C134.2 127.45 132.651 128.898 132.833 130.439Z" fill="#0C0C0C"/>
<path opacity="0.5" d="M123.576 135.181C123.587 135.18 123.597 135.178 123.607 135.176C124.254 135.041 124.893 134.871 125.521 134.666C126.458 134.352 127.682 133.837 127.514 132.989C127.32 132.024 122.575 122.134 122.036 121.011C122.014 120.96 121.982 120.914 121.942 120.876C121.902 120.838 121.855 120.809 121.803 120.79C121.751 120.77 121.696 120.762 121.641 120.764C121.585 120.767 121.531 120.78 121.481 120.804C121.431 120.828 121.387 120.862 121.35 120.903C121.314 120.945 121.286 120.993 121.269 121.046C121.251 121.098 121.245 121.154 121.249 121.209C121.254 121.264 121.27 121.318 121.295 121.366C123.319 125.578 126.578 132.503 126.709 133.153C126.606 133.456 125.051 134.048 123.447 134.372C123.393 134.38 123.342 134.399 123.296 134.428C123.251 134.456 123.211 134.493 123.179 134.537C123.148 134.58 123.125 134.63 123.112 134.682C123.1 134.735 123.098 134.789 123.107 134.842C123.115 134.896 123.134 134.947 123.163 134.993C123.191 135.038 123.228 135.078 123.272 135.11C123.315 135.141 123.365 135.164 123.417 135.177C123.47 135.189 123.524 135.191 123.577 135.182L123.576 135.181Z" fill="#0C0C0C"/>
<path d="M70.3607 128.179L84.6705 125.384C95.48 120.864 98.5469 102.025 98.5469 102.025C98.5469 102.025 111.887 114.73 143.771 107.047C143.771 107.047 136.845 62.5385 89.7662 76.0518C74.5864 80.4079 63.8337 95.8809 65.4329 116.375C66.5535 130.733 70.3607 128.179 70.3607 128.179Z" fill="#0A0A0A"/>
<path d="M88.206 142.949C83.3554 143.925 78.3788 139.527 77.4008 134.675C76.4227 129.824 79.8187 126.359 84.6693 125.382L87.8232 128.129L92.3756 142.109L88.206 142.949Z" fill="#E98862"/>
<path d="M125.475 113.124C126.688 112.266 128.107 111.745 129.588 111.613C130.332 111.542 131.082 111.583 131.814 111.736C132.551 111.887 133.267 112.129 133.945 112.458L133.966 112.467C134.041 112.501 134.126 112.503 134.203 112.474C134.279 112.446 134.342 112.388 134.377 112.314C134.412 112.239 134.416 112.154 134.389 112.077C134.362 111.999 134.306 111.935 134.233 111.899C133.515 111.52 132.753 111.233 131.963 111.044C131.168 110.851 130.349 110.778 129.532 110.829C127.879 110.92 126.279 111.453 124.902 112.372C124.85 112.407 124.806 112.452 124.772 112.504C124.738 112.555 124.714 112.613 124.703 112.674C124.691 112.735 124.692 112.798 124.704 112.859C124.717 112.919 124.741 112.977 124.776 113.028C124.811 113.08 124.856 113.124 124.908 113.158C124.96 113.192 125.018 113.215 125.079 113.226C125.14 113.238 125.202 113.237 125.263 113.225C125.324 113.212 125.381 113.187 125.433 113.152L125.444 113.145L125.475 113.124Z" fill="#0C0C0C"/>
<path d="M112.402 114.931C110.777 114.608 109.095 114.726 107.532 115.275C106.759 115.541 106.031 115.922 105.371 116.404C104.714 116.88 104.119 117.438 103.601 118.063C103.549 118.125 103.523 118.205 103.528 118.286C103.533 118.367 103.57 118.443 103.63 118.497C103.69 118.552 103.769 118.581 103.85 118.579C103.931 118.577 104.008 118.543 104.065 118.485L104.082 118.468C104.582 117.905 105.15 117.408 105.774 116.986C106.391 116.565 107.069 116.24 107.783 116.021C109.201 115.576 110.712 115.514 112.162 115.842L112.198 115.851C112.319 115.881 112.448 115.861 112.555 115.796C112.662 115.731 112.738 115.626 112.768 115.504C112.797 115.382 112.777 115.254 112.712 115.147C112.647 115.04 112.542 114.963 112.42 114.934L112.402 114.931Z" fill="#0C0C0C"/>
<path d="M84.6803 125.148C94.2994 121.567 97.4916 114.925 98.4746 109.982C99.1108 106.685 99.0512 103.292 98.2998 100.019L98.0022 100.101C98.7424 103.331 98.7996 106.68 98.1702 109.933C97.1996 114.795 94.0531 121.331 84.5723 124.86L84.6803 125.148Z" fill="#0C0C0C"/>
<path d="M160.623 179.064L251.959 209.594L225.143 221.514L270.686 128.083L307.907 145.429L265.652 240.392C263.514 245.194 259.721 249.067 254.964 251.303C250.207 253.539 244.804 253.988 239.743 252.57L238.835 252.312L146.116 226.281L160.623 179.064Z" fill="#1F5AB2"/>
<path d="M103.207 193.271C82.1575 192.278 81.2714 174.412 81.2714 174.412C81.2714 174.412 70.8416 175.086 63.9084 176.024C52.5573 177.56 45.069 181.409 39.1095 187.368C33.5661 192.912 30.1912 198.91 33.7624 237.202C36.3483 264.929 34.5287 325.915 34.5287 325.915H162.802C162.802 325.915 171.759 237.807 172.821 225.328C174.848 201.501 180.573 196.241 168.973 183.968C160.56 175.067 138.842 174.412 130.1 174.413C129.957 174.413 131.874 194.622 103.207 193.271Z" fill="#1F5AB2"/>
<path d="M127.843 138.523C123.707 140.626 118.988 141.291 114.431 140.413C114.274 140.383 114.111 140.399 113.962 140.459C113.813 140.518 113.684 140.619 113.59 140.749C113.496 140.879 113.441 141.033 113.431 141.194C113.422 141.354 113.458 141.513 113.535 141.654C114.894 144.047 118.116 148.137 123.643 146.47C127.212 145.393 128.561 141.722 129.061 139.45C129.095 139.293 129.084 139.13 129.028 138.979C128.973 138.828 128.875 138.696 128.747 138.598C128.619 138.501 128.466 138.442 128.306 138.429C128.146 138.415 127.985 138.448 127.843 138.523Z" fill="white"/>
<path d="M128.101 120.128C129.205 120.128 130.1 119.233 130.1 118.129C130.1 117.025 129.205 116.131 128.101 116.131C126.997 116.131 126.103 117.025 126.103 118.129C126.103 119.233 126.997 120.128 128.101 120.128Z" fill="#0C0C0C"/>
<path d="M108.896 123.49C110 123.49 110.895 122.595 110.895 121.491C110.895 120.388 110 119.493 108.896 119.493C107.792 119.493 106.897 120.388 106.897 121.491C106.897 122.595 107.792 123.49 108.896 123.49Z" fill="#0C0C0C"/>
<path d="M172.536 234.009C172.523 234.01 172.51 234.01 172.497 234.009C172.416 233.999 172.342 233.957 172.292 233.892C172.242 233.828 172.219 233.746 172.229 233.665L174.215 217.563C174.219 217.523 174.232 217.483 174.252 217.448C174.271 217.412 174.298 217.381 174.33 217.356C174.362 217.331 174.399 217.313 174.438 217.302C174.478 217.292 174.519 217.289 174.559 217.295C174.599 217.3 174.638 217.313 174.674 217.333C174.709 217.353 174.74 217.38 174.765 217.412C174.79 217.444 174.808 217.48 174.819 217.519C174.83 217.559 174.833 217.599 174.828 217.64L172.841 233.741C172.831 233.815 172.795 233.883 172.739 233.932C172.683 233.981 172.61 234.009 172.536 234.009Z" fill="#0C0C0C"/>
<path d="M497.225 109.766C497.225 109.766 489.574 101.173 490.461 85.0808C491.148 72.6209 500.76 82.6975 500.76 82.6975C500.76 82.6975 501.342 73.7304 507.531 75.8655C513.72 78.0006 515.458 87.8883 515.458 87.8883" fill="#0C0C0C"/>
<path d="M540.228 83.4452C540.228 83.4452 571.133 93.126 551.187 133.643L548.356 133.273L542.607 132.522" fill="#0C0C0C"/>
<path d="M496.263 175.887C496.405 175.869 497.975 201.937 528.26 199.665C549.225 198.094 556.7 175.851 557.181 175.851C554.92 175.37 551.114 174.672 550.11 174.136C546.808 172.362 542.724 170.516 541.659 164.105C541.046 160.41 542.087 141.507 541.767 137.768L509.585 144.95C510.035 152.846 513.182 171.151 502.151 174.391C500.316 174.927 498.337 175.419 496.263 175.887Z" fill="#E98862"/>
<path opacity="0.52" d="M509.134 166.91C509.638 165.286 509.962 163.611 510.101 161.915C510.456 158.047 510.385 154.151 509.891 150.298C516.432 149.415 522.595 146.716 527.678 142.506C528.275 144.713 531.562 154.356 530.652 156.453C528.932 160.418 520.849 166.91 509.134 166.91Z" fill="#0C0C0C"/>
<path d="M512.993 158.082C525.667 159.447 542.136 154.55 545.722 137.692L548.955 122.48C552.537 105.624 546.59 90.0722 530.716 86.6979C514.843 83.3235 500.073 94.4683 496.49 111.327L495.058 118.061C494.607 120.382 494.314 122.731 494.182 125.092C493.788 131.328 493.212 140.815 496.09 147.883C498.806 154.556 504.896 157.21 512.993 158.082Z" fill="#E98862"/>
<path d="M502.925 119.244C504.029 119.244 504.924 118.349 504.924 117.245C504.924 116.141 504.029 115.247 502.925 115.247C501.822 115.247 500.927 116.141 500.927 117.245C500.927 118.349 501.822 119.244 502.925 119.244Z" fill="#0C0C0C"/>
<path d="M521.908 121.243C523.012 121.243 523.906 120.348 523.906 119.244C523.906 118.14 523.012 117.245 521.908 117.245C520.804 117.245 519.909 118.14 519.909 119.244C519.909 120.348 520.804 121.243 521.908 121.243Z" fill="#0C0C0C"/>
<path d="M543.643 142.618C548.468 143.644 553.475 139.314 554.501 134.49C555.526 129.666 552.181 126.175 547.357 125.15L544.184 127.853L539.496 141.736L543.643 142.618Z" fill="#E98862"/>
<path d="M540.384 133.888C540.384 133.888 543.518 109.647 536.56 106.725C531.93 104.778 518.849 109.294 508.412 105.063C503.847 103.211 499.107 103.489 498.202 105.639C497.843 106.491 497.429 93.1453 506.792 84.9457C514.245 78.4169 534.044 80.1006 542.351 84.3844C565.35 96.2448 548.147 126.402 548.147 126.402L545.416 134.429L540.384 133.888Z" fill="#0C0C0C"/>
<g opacity="0.52">
<path d="M508.125 135.623L508.093 135.618C506.538 135.291 503.966 134.568 504.208 133.407C504.412 132.443 509.234 122.59 509.784 121.47C509.831 121.373 509.915 121.3 510.016 121.265C510.118 121.23 510.229 121.237 510.325 121.284C510.422 121.332 510.495 121.415 510.53 121.517C510.565 121.618 510.558 121.73 510.511 121.826C508.371 126.189 505.139 132.918 505.001 133.573C505.096 133.882 506.649 134.487 508.259 134.825C508.36 134.848 508.449 134.908 508.506 134.994C508.564 135.08 508.587 135.185 508.57 135.287C508.553 135.39 508.497 135.481 508.414 135.544C508.331 135.606 508.228 135.634 508.125 135.623Z" fill="#0C0C0C"/>
</g>
<path d="M507.766 110.993C506.238 110.222 504.53 109.877 502.823 109.995C501.983 110.047 501.157 110.226 500.371 110.524C499.593 110.815 498.855 111.203 498.174 111.68C498.061 111.752 497.98 111.866 497.95 111.998C497.919 112.129 497.942 112.267 498.013 112.382C498.083 112.497 498.196 112.58 498.327 112.612C498.458 112.644 498.597 112.623 498.713 112.554L498.749 112.534C499.373 112.147 500.043 111.84 500.744 111.62C501.434 111.4 502.154 111.285 502.879 111.28C504.312 111.259 505.725 111.617 506.975 112.318L507.022 112.346C507.11 112.398 507.207 112.432 507.308 112.447C507.409 112.461 507.511 112.456 507.61 112.43C507.709 112.405 507.801 112.36 507.883 112.299C507.964 112.238 508.032 112.161 508.084 112.073C508.135 111.985 508.169 111.888 508.183 111.787C508.197 111.686 508.191 111.583 508.165 111.485C508.139 111.386 508.093 111.294 508.031 111.213C507.97 111.132 507.892 111.064 507.804 111.013L507.766 110.993Z" fill="#0C0C0C"/>
<path d="M519.194 114.082C520.583 113.726 522.04 113.743 523.42 114.131C524.119 114.322 524.785 114.618 525.396 115.008C526.016 115.401 526.585 115.87 527.089 116.404L527.117 116.432C527.212 116.524 527.339 116.576 527.472 116.577C527.604 116.578 527.732 116.527 527.828 116.436C527.925 116.345 527.982 116.22 527.988 116.088C527.995 115.956 527.95 115.826 527.863 115.726C527.328 115.091 526.715 114.526 526.038 114.044C525.354 113.555 524.601 113.17 523.804 112.903C522.184 112.35 520.445 112.243 518.77 112.595C518.671 112.616 518.577 112.657 518.494 112.715C518.41 112.773 518.339 112.847 518.285 112.932C518.174 113.104 518.136 113.314 518.18 113.514C518.223 113.714 518.345 113.889 518.517 114C518.69 114.11 518.899 114.148 519.099 114.104L519.139 114.094L519.194 114.082Z" fill="#0C0C0C"/>
<path d="M505.679 139.363C510.181 140.487 514.929 140.08 519.174 138.204C519.321 138.14 519.483 138.119 519.642 138.144C519.8 138.169 519.948 138.238 520.069 138.344C520.19 138.449 520.278 138.587 520.323 138.741C520.368 138.895 520.369 139.059 520.324 139.213C519.535 141.85 517.311 146.561 511.551 146.17C507.832 145.92 505.695 142.643 504.698 140.541C504.629 140.395 504.603 140.233 504.623 140.073C504.643 139.913 504.709 139.762 504.812 139.638C504.915 139.514 505.052 139.423 505.205 139.374C505.359 139.325 505.524 139.321 505.679 139.363Z" fill="white"/>
<path d="M523.543 88.3993C525.694 83.35 524.656 78.0719 521.226 76.6105C517.795 75.1491 513.27 78.0577 511.119 83.1071C508.968 88.1565 510.006 93.4345 513.436 94.8959C516.867 96.3573 521.392 93.4487 523.543 88.3993Z" fill="#0C0C0C"/>
<path d="M528.731 193.271C549.78 192.278 550.666 174.412 550.666 174.412C550.666 174.412 561.096 175.086 568.03 176.024C579.381 177.56 586.869 181.409 592.828 187.368C598.372 192.912 601.746 198.91 598.175 237.202C595.589 264.929 597.409 325.915 597.409 325.915H469.136C469.136 325.915 460.179 237.809 459.117 225.328C457.09 201.501 451.365 196.241 462.965 183.968C471.377 175.067 493.096 174.412 501.838 174.413C501.98 174.413 500.065 194.622 528.731 193.271Z" fill="#1F5AB2"/>
<path d="M458.813 189.486L425.649 259.795L360.246 210.612L334.27 245.155L420.872 310.281C421.647 310.857 422.457 311.384 423.296 311.861C425.771 313.248 428.494 314.133 431.311 314.467C434.128 314.801 436.983 314.577 439.713 313.807C442.443 313.038 444.994 311.738 447.222 309.983C449.45 308.227 451.31 306.05 452.697 303.575L453.072 302.907L503.669 212.594L458.813 189.486Z" fill="#1F5AB2"/>
<path d="M602.331 326.533H18.1809C18.0172 326.533 17.8601 326.468 17.7443 326.352C17.6285 326.236 17.5635 326.079 17.5635 325.915C17.5635 325.752 17.6285 325.595 17.7443 325.479C17.8601 325.363 18.0172 325.298 18.1809 325.298H602.331C602.495 325.298 602.652 325.363 602.768 325.479C602.884 325.595 602.949 325.752 602.949 325.915C602.949 326.079 602.884 326.236 602.768 326.352C602.652 326.468 602.495 326.533 602.331 326.533Z" fill="#292A2E"/>
<path d="M475.274 234.077H162.467V340.999H475.274V234.077Z" fill="white"/>
<path d="M475.582 341.309H162.158V233.768H475.582V341.309ZM162.776 340.691H474.965V234.385H162.776V340.691Z" fill="#0C0C0C"/>
<path d="M147.021 266.754L166.33 258.13C166.754 257.941 167.213 257.842 167.678 257.84C168.143 257.837 168.603 257.932 169.029 258.117C169.455 258.302 169.838 258.574 170.153 258.916C170.468 259.257 170.709 259.66 170.86 260.1C171.113 260.92 171.053 261.805 170.691 262.583C170.329 263.361 169.691 263.977 168.901 264.311L164.76 266.164L180.45 266.326C182.195 266.313 184.344 267.414 184.229 269.371C184.234 270.128 183.982 270.864 183.515 271.459C183.049 272.054 182.394 272.473 181.658 272.648C181.662 272.665 181.665 272.681 181.665 272.698C181.663 272.711 181.661 272.724 181.657 272.736L184.348 272.717C184.846 272.714 185.338 272.821 185.789 273.033C186.24 273.244 186.639 273.553 186.955 273.937C187.272 274.322 187.499 274.772 187.619 275.255C187.74 275.738 187.751 276.242 187.653 276.73C187.481 277.496 187.051 278.18 186.436 278.667C185.821 279.154 185.056 279.415 184.271 279.407L183.127 279.415C183.112 279.448 183.091 279.478 183.065 279.504C183.84 279.678 184.527 280.122 185.005 280.756C185.482 281.391 185.718 282.174 185.671 282.967C185.595 283.833 185.194 284.638 184.55 285.222C183.906 285.806 183.065 286.125 182.196 286.116L179.352 286.136C179.392 286.164 179.424 286.201 179.448 286.244C179.471 286.287 179.484 286.334 179.485 286.383C179.482 286.442 179.463 286.498 179.429 286.546C180.076 286.892 180.592 287.442 180.896 288.11C181.2 288.778 181.277 289.527 181.113 290.243C180.926 290.991 180.493 291.653 179.882 292.124C179.272 292.595 178.52 292.846 177.749 292.836L153.756 293.007C150.399 293.031 147.112 292.052 144.316 290.196C141.519 288.34 139.341 285.691 138.06 282.588C136.955 279.913 136.937 276.913 138.009 274.225C139.081 271.536 141.159 269.372 143.802 268.191L147.021 266.754Z" fill="#E98862"/>
<g opacity="0.2">
<path d="M166.127 272.562C166.128 272.643 166.161 272.721 166.219 272.778C166.277 272.835 166.355 272.867 166.436 272.867L181.357 273.001C181.439 273.001 181.517 272.97 181.576 272.912C181.634 272.855 181.668 272.777 181.668 272.695C181.669 272.613 181.637 272.534 181.58 272.476C181.522 272.417 181.444 272.384 181.362 272.383L166.441 272.249C166.359 272.249 166.281 272.281 166.223 272.339C166.165 272.397 166.133 272.475 166.133 272.557L166.127 272.562Z" fill="#0C0C0C"/>
</g>
<g opacity="0.2">
<path d="M165.886 279.144C165.887 279.225 165.92 279.302 165.978 279.359C166.036 279.416 166.113 279.448 166.195 279.448L182.846 279.598C182.928 279.598 183.007 279.566 183.065 279.508C183.123 279.45 183.155 279.371 183.155 279.289C183.152 279.208 183.119 279.132 183.062 279.074C183.004 279.017 182.927 278.984 182.846 278.981L166.195 278.831C166.154 278.83 166.113 278.838 166.076 278.853C166.038 278.869 166.003 278.891 165.974 278.92C165.945 278.949 165.922 278.983 165.907 279.021C165.891 279.058 165.883 279.099 165.883 279.139L165.886 279.144Z" fill="#0C0C0C"/>
</g>
<g opacity="0.2">
<path d="M165.584 286.265C165.585 286.346 165.618 286.424 165.676 286.481C165.734 286.538 165.812 286.57 165.893 286.57L179.176 286.689C179.258 286.69 179.336 286.658 179.395 286.601C179.453 286.544 179.486 286.465 179.487 286.383C179.488 286.302 179.456 286.223 179.399 286.164C179.341 286.106 179.263 286.073 179.181 286.072L165.898 285.952C165.816 285.952 165.738 285.985 165.68 286.043C165.622 286.1 165.59 286.179 165.59 286.261L165.584 286.265Z" fill="#0C0C0C"/>
</g>
<path d="M152.548 301.135L45.4913 325.472C41.9349 325.859 38.3371 325.416 34.9803 324.179C31.6235 322.942 28.599 320.944 26.144 318.342C23.6891 315.74 21.8705 312.604 20.831 309.181C19.7915 305.758 19.5594 302.141 20.1528 298.613L32.404 200.069C33.4229 194.014 36.8057 188.611 41.8083 185.049C46.8108 181.487 53.0233 180.059 59.079 181.078C65.1348 182.097 70.5378 185.479 74.0994 190.482C77.661 195.484 79.0895 201.697 78.0706 207.753L72.1709 278.286L146.55 261.453L152.548 301.135Z" fill="#1F5AB2"/>
<path d="M57.1197 281.058C57.0421 281.057 56.9677 281.027 56.9111 280.974C56.8545 280.921 56.82 280.849 56.8143 280.772C56.8086 280.694 56.8322 280.618 56.8805 280.557C56.9287 280.496 56.998 280.456 57.0746 280.444L71.9926 277.259C72.0327 277.252 72.0737 277.254 72.1132 277.263C72.1528 277.273 72.19 277.29 72.2226 277.314C72.2553 277.338 72.2828 277.369 72.3036 277.404C72.3243 277.439 72.3378 277.478 72.3433 277.518C72.3553 277.599 72.3348 277.681 72.2861 277.747C72.2375 277.813 72.1648 277.856 72.084 277.869L57.166 281.054C57.1506 281.056 57.1352 281.058 57.1197 281.058Z" fill="#0C0C0C"/>
<path d="M48.7035 325.915C48.6216 325.921 48.541 325.893 48.4793 325.839C48.4176 325.785 48.38 325.709 48.3747 325.627C48.3694 325.545 48.3968 325.464 48.4509 325.403C48.505 325.341 48.5815 325.303 48.6633 325.298L151.876 300.989L146.028 261.905L72.0921 277.866C72.0443 277.872 71.9958 277.866 71.9503 277.851C71.9047 277.835 71.8635 277.809 71.8297 277.774C71.796 277.739 71.771 277.697 71.7566 277.651C71.7422 277.605 71.7389 277.556 71.747 277.508L75.8943 237.208C75.9005 237.167 75.9147 237.129 75.9361 237.094C75.9574 237.06 75.9855 237.03 76.0187 237.006C76.0518 236.982 76.0894 236.966 76.1291 236.957C76.1688 236.948 76.2099 236.947 76.25 236.955C76.3307 236.968 76.4027 237.013 76.4502 237.08C76.4977 237.147 76.5167 237.229 76.5031 237.31L72.428 277.197L146.171 261.224C146.211 261.213 146.253 261.21 146.293 261.215C146.334 261.22 146.374 261.234 146.409 261.255C146.445 261.275 146.476 261.303 146.5 261.336C146.525 261.369 146.543 261.407 146.553 261.447L152.55 301.131C152.569 301.209 152.557 301.292 152.516 301.361C152.476 301.43 152.41 301.48 152.332 301.502L48.7436 325.913C48.7303 325.915 48.7169 325.916 48.7035 325.915Z" fill="#0C0C0C"/>
<path d="M484.916 285.277L465.607 276.653C465.183 276.464 464.724 276.365 464.259 276.363C463.794 276.361 463.334 276.455 462.908 276.64C462.482 276.826 462.099 277.098 461.784 277.439C461.469 277.78 461.228 278.184 461.077 278.623C460.824 279.443 460.884 280.328 461.246 281.106C461.608 281.884 462.246 282.5 463.036 282.835L467.177 284.687L451.487 284.849C449.742 284.836 447.593 285.937 447.709 287.895C447.703 288.651 447.955 289.387 448.422 289.982C448.889 290.577 449.544 290.996 450.28 291.171C450.275 291.188 450.272 291.204 450.272 291.221C450.273 291.234 450.276 291.247 450.28 291.259L447.589 291.24C447.091 291.237 446.599 291.344 446.148 291.556C445.697 291.767 445.298 292.076 444.982 292.46C444.665 292.844 444.438 293.295 444.318 293.778C444.197 294.261 444.186 294.765 444.284 295.253C444.456 296.019 444.886 296.703 445.501 297.19C446.116 297.677 446.88 297.938 447.665 297.93L448.811 297.938C448.826 297.971 448.847 298.001 448.872 298.027C448.098 298.201 447.41 298.645 446.933 299.28C446.455 299.914 446.219 300.697 446.266 301.49C446.343 302.356 446.743 303.161 447.388 303.745C448.032 304.329 448.873 304.648 449.742 304.639L452.586 304.659C452.546 304.687 452.513 304.724 452.49 304.767C452.467 304.81 452.454 304.858 452.453 304.906C452.455 304.965 452.474 305.021 452.508 305.069C451.861 305.415 451.346 305.965 451.042 306.633C450.737 307.301 450.661 308.05 450.824 308.766C451.011 309.514 451.445 310.177 452.056 310.647C452.666 311.118 453.418 311.369 454.189 311.359L478.182 311.53C481.539 311.554 484.826 310.575 487.623 308.718C490.419 306.862 492.597 304.212 493.878 301.11C494.983 298.435 495.001 295.434 493.929 292.746C492.857 290.058 490.779 287.893 488.136 286.713L484.916 285.277Z" fill="#E98862"/>
<g opacity="0.2">
<path d="M465.81 291.086C465.809 291.167 465.776 291.244 465.718 291.301C465.66 291.358 465.582 291.39 465.501 291.39L450.58 291.524C450.54 291.524 450.499 291.517 450.462 291.501C450.424 291.486 450.39 291.464 450.361 291.435C450.332 291.407 450.309 291.373 450.293 291.336C450.277 291.299 450.269 291.258 450.269 291.218C450.268 291.177 450.276 291.137 450.291 291.1C450.306 291.062 450.329 291.028 450.357 290.999C450.385 290.97 450.419 290.947 450.457 290.931C450.494 290.915 450.534 290.907 450.574 290.906L465.496 290.772C465.577 290.772 465.656 290.804 465.714 290.862C465.772 290.92 465.804 290.999 465.804 291.081L465.81 291.086Z" fill="#0C0C0C"/>
</g>
<g opacity="0.2">
<path d="M466.051 297.667C466.05 297.748 466.017 297.824 465.96 297.881C465.903 297.938 465.826 297.971 465.745 297.971L449.093 298.121C449.011 298.121 448.933 298.089 448.875 298.031C448.817 297.973 448.784 297.895 448.784 297.813C448.787 297.732 448.82 297.655 448.878 297.597C448.935 297.54 449.012 297.507 449.093 297.504L465.745 297.354C465.827 297.354 465.905 297.386 465.963 297.444C466.021 297.502 466.053 297.581 466.053 297.663L466.051 297.667Z" fill="#0C0C0C"/>
</g>
<g opacity="0.2">
<path d="M466.353 304.788C466.352 304.87 466.319 304.947 466.262 305.004C466.204 305.061 466.126 305.093 466.045 305.093L452.762 305.213C452.721 305.213 452.681 305.205 452.643 305.19C452.606 305.175 452.572 305.153 452.543 305.124C452.514 305.096 452.491 305.062 452.475 305.025C452.459 304.987 452.451 304.947 452.45 304.907C452.45 304.866 452.457 304.826 452.473 304.788C452.488 304.751 452.51 304.716 452.539 304.688C452.567 304.659 452.601 304.636 452.638 304.62C452.676 304.604 452.716 304.595 452.756 304.595L466.039 304.475C466.121 304.475 466.2 304.508 466.257 304.566C466.315 304.624 466.348 304.702 466.348 304.784L466.353 304.788Z" fill="#0C0C0C"/>
</g>
<path d="M485.563 319.658L586.445 325.471C590.002 325.859 593.599 325.416 596.956 324.179C600.313 322.942 603.338 320.944 605.793 318.342C608.247 315.74 610.066 312.604 611.106 309.181C612.145 305.758 612.377 302.141 611.784 298.613L599.535 200.066C599.031 197.068 597.94 194.198 596.327 191.621C594.713 189.043 592.608 186.809 590.131 185.046C587.654 183.282 584.854 182.024 581.89 181.343C578.927 180.661 575.859 180.57 572.86 181.075C569.862 181.579 566.992 182.669 564.415 184.283C561.837 185.896 559.603 188.002 557.84 190.479C556.076 192.956 554.818 195.756 554.136 198.719C553.455 201.683 553.364 204.751 553.868 207.75L559.768 282.605L486.006 279.973L485.563 319.658Z" fill="#1F5AB2"/>
<path d="M574.818 282.293C574.895 282.292 574.97 282.263 575.027 282.21C575.083 282.157 575.118 282.084 575.124 282.007C575.129 281.93 575.106 281.853 575.058 281.792C575.009 281.731 574.94 281.691 574.864 281.679L559.946 281.581C559.905 281.574 559.864 281.576 559.825 281.585C559.785 281.595 559.748 281.612 559.715 281.636C559.682 281.661 559.655 281.691 559.634 281.726C559.613 281.761 559.6 281.8 559.594 281.84C559.582 281.921 559.603 282.004 559.652 282.069C559.7 282.135 559.773 282.179 559.854 282.191L574.772 282.289C574.787 282.291 574.802 282.293 574.818 282.293Z" fill="#0C0C0C"/>
<path d="M583.235 325.915C583.317 325.921 583.397 325.893 583.459 325.839C583.52 325.785 583.558 325.708 583.563 325.626C583.568 325.545 583.541 325.464 583.487 325.402C583.433 325.341 583.356 325.303 583.274 325.298L486.235 319.514L486.526 280.43L559.844 282.19C559.891 282.196 559.94 282.191 559.986 282.175C560.031 282.159 560.072 282.133 560.106 282.099C560.14 282.064 560.165 282.022 560.179 281.976C560.194 281.929 560.197 281.88 560.189 281.833L556.042 237.21C556.036 237.17 556.022 237.131 556 237.097C555.979 237.062 555.951 237.032 555.918 237.009C555.884 236.985 555.847 236.968 555.807 236.959C555.768 236.951 555.726 236.95 555.686 236.957C555.646 236.964 555.608 236.978 555.574 237C555.539 237.021 555.509 237.049 555.486 237.082C555.462 237.115 555.445 237.153 555.436 237.192C555.427 237.232 555.426 237.273 555.433 237.313L559.511 281.521L486.385 279.749C486.345 279.738 486.304 279.735 486.263 279.741C486.222 279.746 486.183 279.76 486.147 279.78C486.112 279.801 486.081 279.829 486.056 279.862C486.031 279.895 486.013 279.932 486.003 279.972L485.562 319.657C485.543 319.735 485.556 319.817 485.596 319.886C485.637 319.956 485.703 320.006 485.78 320.028L583.192 325.909C583.206 325.912 583.22 325.914 583.235 325.915Z" fill="#0C0C0C"/>
<path d="M236.627 304.036H228.428L223.829 286.196C223.658 285.561 223.368 284.249 222.958 282.259C222.548 280.269 222.312 278.934 222.249 278.252C222.156 279.088 221.924 280.431 221.552 282.282C221.18 284.133 220.894 285.453 220.693 286.243L216.117 304.036H207.941L199.275 270.077H206.361L210.704 288.614C211.463 292.037 212.013 295.002 212.353 297.511C212.446 296.628 212.659 295.261 212.992 293.411C213.326 291.561 213.64 290.124 213.933 289.102L218.881 270.077H225.687L230.635 289.102C230.851 289.954 231.122 291.255 231.448 293.004C231.773 294.753 232.02 296.256 232.189 297.511C232.343 296.304 232.59 294.797 232.93 292.993C233.269 291.188 233.578 289.729 233.856 288.615L238.178 270.078H245.263L236.627 304.036Z" fill="#1F5AB2"/>
<path d="M269.102 304.036H249.543V270.077H269.102V275.977H256.745V283.434H268.243V289.331H256.745V298.089H269.102V304.036Z" fill="#1F5AB2"/>
<path d="M276.187 304.036V270.077H283.388V298.092H297.162V304.038L276.187 304.036Z" fill="#1F5AB2"/>
<path d="M317.489 275.58C316.268 275.525 315.052 275.775 313.952 276.308C312.853 276.842 311.903 277.641 311.191 278.635C309.704 280.672 308.961 283.51 308.962 287.149C308.962 294.723 311.803 298.51 317.486 298.51C320.453 298.394 323.381 297.789 326.151 296.719V302.758C323.185 303.954 320.01 304.546 316.813 304.501C311.873 304.501 308.095 303.002 305.477 300.006C302.859 297.009 301.55 292.708 301.551 287.101C301.481 283.902 302.14 280.728 303.479 277.822C304.667 275.273 306.598 273.143 309.02 271.712C311.598 270.251 314.524 269.517 317.486 269.587C320.938 269.624 324.336 270.442 327.427 271.979L325.103 277.833C323.855 277.238 322.576 276.711 321.271 276.253C320.057 275.817 318.779 275.59 317.489 275.58Z" fill="#1F5AB2"/>
<path d="M364.201 287.009C364.201 292.63 362.807 296.951 360.02 299.971C357.232 302.991 353.237 304.501 348.033 304.501C342.83 304.501 338.835 302.991 336.048 299.971C333.26 296.952 331.866 292.615 331.866 286.963C331.866 281.31 333.264 276.993 336.059 274.013C338.855 271.032 342.861 269.541 348.08 269.541C353.298 269.541 357.29 271.043 360.055 274.048C362.82 277.053 364.202 281.373 364.201 287.009ZM339.416 287.009C339.416 290.803 340.136 293.66 341.577 295.581C343.017 297.501 345.17 298.461 348.034 298.461C353.78 298.461 356.653 294.644 356.652 287.009C356.652 279.359 353.795 275.534 348.08 275.534C345.216 275.534 343.055 276.498 341.597 278.426C340.139 280.354 339.412 283.215 339.416 287.009Z" fill="#1F5AB2"/>
<path d="M385.618 304.036L377.442 277.393H377.233C377.527 282.813 377.674 286.429 377.674 288.24V304.036H371.239V270.077H381.042L389.08 296.047H389.218L397.744 270.077H407.547V304.036H400.834V287.961C400.834 287.203 400.845 286.328 400.868 285.337C400.89 284.345 400.995 281.712 401.181 277.439H400.973L392.216 304.036H385.618Z" fill="#1F5AB2"/>
<path d="M435.654 304.036H416.094V270.077H435.652V275.977H423.296V283.434H434.795V289.331H423.296V298.089H435.654V304.036Z" fill="#1F5AB2"/>
</svg>
