<svg width="67" height="67" viewBox="0 0 67 67" fill="none" xmlns="http://www.w3.org/2000/svg">
<path d="M49.1196 38.1647C48.8343 41.5526 45.3037 42.0872 45.3037 42.0872C48.3351 42.2299 49.0903 46.2061 49.0903 46.2061C49.1551 43.371 52.993 42.0453 52.993 42.0453C50.1181 41.8734 49.1196 38.1647 49.1196 38.1647Z" fill="#D7E057"/>
<path d="M53.0191 41.6071C50.4984 41.4559 49.5527 38.0841 49.5436 38.0499C49.4879 37.8442 49.2948 37.7094 49.0795 37.727C48.8671 37.7463 48.6992 37.9151 48.6814 38.1275C48.4294 41.1205 45.367 41.6326 45.2378 41.6525C45.0143 41.6865 44.8531 41.8842 44.8649 42.1098C44.8766 42.3357 45.0573 42.5156 45.2832 42.5261C47.9278 42.6509 48.6518 46.2524 48.6585 46.2887C48.6989 46.4973 48.8812 46.6456 49.0901 46.6456C49.1024 46.6456 49.1147 46.645 49.127 46.6441C49.3511 46.6253 49.5245 46.4411 49.5298 46.2164C49.5863 43.7235 53.1014 42.4731 53.1371 42.4608C53.3352 42.3922 53.457 42.193 53.4283 41.9856C53.3996 41.7782 53.2282 41.6197 53.0191 41.6071ZM49.0446 44.6378C48.6474 43.7208 47.958 42.6143 46.8219 42.0375C47.6806 41.6258 48.6995 40.8911 49.2248 39.6137C49.6792 40.5134 50.455 41.6293 51.6664 42.1693C50.7852 42.6492 49.6382 43.4595 49.0446 44.6378Z" fill="#3A312A"/>
<path d="M42.7623 43.1395C42.5605 45.5357 40.0635 45.9139 40.0635 45.9139C42.2074 46.0147 42.7418 48.8272 42.7418 48.8272C42.7875 46.8221 45.5021 45.8844 45.5021 45.8844C43.4687 45.7628 42.7623 43.1395 42.7623 43.1395Z" fill="#D7E057"/>
<path d="M45.5292 45.4457C43.8397 45.3444 43.1934 43.0472 43.1869 43.0241C43.1316 42.8184 42.9338 42.6831 42.7237 42.7012C42.511 42.7203 42.3429 42.8896 42.325 43.102C42.1557 45.115 40.085 45.4651 39.9985 45.4789C39.775 45.5128 39.6139 45.7106 39.6256 45.9362C39.6373 46.1621 39.8181 46.3419 40.044 46.3525C41.812 46.4357 42.3066 48.8852 42.311 48.9092C42.3508 49.1178 42.5333 49.2666 42.7425 49.2666C42.7545 49.2666 42.7668 49.2661 42.7788 49.2652C43.0032 49.2467 43.177 49.0622 43.1822 48.8372C43.2203 47.1646 45.6233 46.308 45.6467 46.2998C45.845 46.2315 45.9672 46.0323 45.9388 45.8246C45.9095 45.6168 45.7381 45.4583 45.5292 45.4457ZM42.7211 47.4362C42.4504 46.8836 42.0356 46.2798 41.4183 45.8896C41.9617 45.5846 42.5014 45.1191 42.845 44.4491C43.155 44.9981 43.6229 45.6078 44.2929 45.9798C43.7506 46.3018 43.1242 46.7826 42.7211 47.4362Z" fill="#3A312A"/>
<path d="M42.7623 35.3296C42.5605 37.7258 40.0635 38.1043 40.0635 38.1043C42.2074 38.2051 42.7418 41.0176 42.7418 41.0176C42.7875 39.0125 45.5021 38.0747 45.5021 38.0747C43.4687 37.9528 42.7623 35.3296 42.7623 35.3296Z" fill="#D7E057"/>
<path d="M45.5292 37.6358C43.8397 37.5348 43.1934 35.2376 43.1869 35.2145C43.1316 35.0088 42.9338 34.8737 42.7237 34.8916C42.511 34.9106 42.3429 35.08 42.325 35.2924C42.1557 37.3051 40.085 37.6555 39.9985 37.6692C39.775 37.7032 39.6139 37.901 39.6256 38.1266C39.6373 38.3524 39.8181 38.5323 40.044 38.5429C41.812 38.6261 42.3066 41.0756 42.311 41.0996C42.3508 41.3082 42.5333 41.457 42.7425 41.457C42.7545 41.457 42.7668 41.4564 42.7788 41.4556C43.0032 41.4371 43.177 41.2525 43.1822 41.0275C43.2203 39.355 45.6233 38.498 45.647 38.4898C45.845 38.4216 45.9672 38.2224 45.9388 38.0146C45.9095 37.8069 45.7381 37.6481 45.5292 37.6358ZM42.7211 39.6266C42.4501 39.074 42.0356 38.4702 41.4183 38.08C41.9617 37.7747 42.5014 37.3095 42.845 36.6395C43.155 37.1885 43.6229 37.7978 44.2926 38.1699C43.7506 38.4922 43.1242 38.9727 42.7211 39.6266Z" fill="#3A312A"/>
<path d="M35.9532 19.8148H3.53125V56.9243H35.9532V19.8148Z" fill="#87796F"/>
<path d="M35.9532 19.3754H3.53125C3.28867 19.3754 3.0918 19.5722 3.0918 19.8148V40.6261C3.0918 40.8687 3.28867 41.0656 3.53125 41.0656C3.77383 41.0656 3.9707 40.8687 3.9707 40.6261V20.2543H35.5138V56.4848H3.9707V45.0971C3.9707 44.8546 3.77383 44.6577 3.53125 44.6577C3.28867 44.6577 3.0918 44.8546 3.0918 45.0971V56.9243C3.0918 57.1669 3.28867 57.3637 3.53125 57.3637H35.9532C36.1958 57.3637 36.3927 57.1669 36.3927 56.9243V19.8148C36.3927 19.5722 36.1958 19.3754 35.9532 19.3754Z" fill="#3A312A"/>
<path d="M30.4876 49.6262H24.7659V45.9076C23.1833 47.0047 21.5459 47.6519 19.9568 47.6519C18.4325 47.6519 16.8241 46.9983 15.2479 45.8879H15.151V49.6259H9.42578C4.64248 49.6259 0.765625 53.5031 0.765625 58.2864V66.1344H39.148V58.2864C39.148 53.5034 35.2709 49.6262 30.4876 49.6262Z" fill="#FCE8CB"/>
<path d="M30.4882 49.1867H25.206V45.9078C25.206 45.7444 25.1151 45.5944 24.9701 45.5185C24.8254 45.4426 24.6508 45.4531 24.516 45.5469C22.9214 46.6523 21.3874 47.213 19.9571 47.213C18.5866 47.213 17.0875 46.6464 15.5011 45.5293C15.4272 45.4772 15.3388 45.4493 15.2482 45.4493H15.1513C14.9087 45.4493 14.7118 45.6462 14.7118 45.8888V49.1873H9.42607C4.4084 49.1873 0.326172 53.2696 0.326172 58.2872V66.1353C0.326172 66.3779 0.523047 66.5747 0.765625 66.5747H39.1483C39.3909 66.5747 39.5878 66.3779 39.5878 66.1353V58.2872C39.5878 53.269 35.5059 49.1867 30.4882 49.1867ZM38.7089 65.6952H1.20537V58.2866C1.20537 53.7535 4.89326 50.0657 9.42637 50.0657H15.1513C15.3938 50.0657 15.5907 49.8688 15.5907 49.6262V46.6449C17.1142 47.6053 18.5805 48.0916 19.9571 48.0916C21.3563 48.0916 22.8232 47.6299 24.3268 46.7176V49.6265C24.3268 49.8691 24.5236 50.0659 24.7662 50.0659H30.4879C35.021 50.0659 38.7089 53.7538 38.7089 58.2869V65.6952Z" fill="#3A312A"/>
<path d="M30.4882 49.6235H29.1191L29.1549 49.6496L23.2032 57.5431L20.132 55.2292L17.0608 57.5431L11.1092 49.6496L11.1446 49.6235H9.42607C4.64277 49.6235 0.765625 53.5007 0.765625 58.284V66.1353H39.148V58.284C39.1486 53.5007 35.2715 49.6235 30.4882 49.6235Z" fill="#F16C7A"/>
<path d="M30.4879 49.1841H29.1188C28.9287 49.1841 28.7597 49.3065 28.7008 49.4876C28.6952 49.5046 28.6908 49.5216 28.6876 49.5392L23.1168 56.9275L20.3963 54.8779C20.2401 54.7602 20.0239 54.7602 19.8675 54.8779L17.147 56.9275L11.5756 49.5386C11.5721 49.521 11.5677 49.504 11.5621 49.4867C11.5029 49.3062 11.3345 49.1841 11.1443 49.1841H9.42607C4.4084 49.1841 0.326172 53.2663 0.326172 58.284V66.1353C0.326172 66.3778 0.523047 66.5747 0.765625 66.5747H39.148C39.3906 66.5747 39.5875 66.3778 39.5875 66.1353V58.284C39.5875 53.2663 35.5056 49.1841 30.4879 49.1841ZM38.7086 65.6958H1.20537V58.284C1.20537 53.7509 4.89326 50.063 9.42637 50.063H10.8707L16.7096 57.8076C16.8552 58.001 17.1306 58.0394 17.3248 57.894L20.1317 55.7791L22.9387 57.894C23.1326 58.0396 23.4083 58.0016 23.5539 57.8076L29.3934 50.063H30.4879C35.021 50.063 38.7089 53.7509 38.7089 58.284V65.6958H38.7086Z" fill="#3A312A"/>
<path fill-rule="evenodd" clip-rule="evenodd" d="M5.08623 24.7502C3.2042 24.7502 1.67871 26.276 1.67871 28.1578C1.67871 30.0395 3.20449 31.5653 5.08623 31.5653C6.96826 31.5653 8.49404 30.0395 8.49404 28.1578C8.49404 26.276 6.96826 24.7502 5.08623 24.7502Z" fill="#FCE8CB"/>
<path d="M5.08623 24.3108C2.96514 24.3108 1.23926 26.0367 1.23926 28.1581C1.23926 30.2791 2.96514 32.005 5.08623 32.005C7.20762 32.005 8.9335 30.2791 8.9335 28.1581C8.9332 26.0364 7.20762 24.3108 5.08623 24.3108ZM5.08623 31.1258C3.44971 31.1258 2.11816 29.7943 2.11816 28.1578C2.11816 26.5209 3.44971 25.1894 5.08623 25.1894C6.72305 25.1894 8.05459 26.5209 8.05459 28.1578C8.0543 29.7946 6.72305 31.1258 5.08623 31.1258Z" fill="#3A312A"/>
<path d="M37.9789 29.4616C38.6992 27.7229 37.8734 25.7295 36.1345 25.0092C34.3957 24.2889 32.4022 25.1145 31.682 26.8533C30.9618 28.592 31.7876 30.5854 33.5264 31.3056C35.2653 32.0259 37.2587 31.2003 37.9789 29.4616Z" fill="#FCE8CB"/>
<path d="M34.8297 24.3108C32.7083 24.3108 30.9824 26.0367 30.9824 28.1581C30.9824 30.2791 32.7083 32.005 34.8297 32.005C36.9508 32.005 38.6767 30.2791 38.6767 28.1581C38.6767 26.0364 36.9508 24.3108 34.8297 24.3108ZM34.8297 31.1258C33.1929 31.1258 31.8613 29.7943 31.8613 28.1578C31.8613 26.5209 33.1929 25.1894 34.8297 25.1894C36.4662 25.1894 37.7978 26.5209 37.7978 28.1578C37.7978 29.7946 36.4662 31.1258 34.8297 31.1258Z" fill="#3A312A"/>
<path d="M19.9579 11.3972C11.6147 11.3972 4.85156 18.1607 4.85156 26.5036C4.85156 34.8464 13.2082 47.6527 19.9579 47.6527C27.0293 47.6527 35.0643 34.8467 35.0643 26.5036C35.0643 18.1604 28.3011 11.3972 19.9579 11.3972Z" fill="#FCE8CB"/>
<path d="M19.9579 10.9578C11.3859 10.9578 4.41211 17.9316 4.41211 26.5036C4.41211 30.5577 6.36621 35.904 9.51182 40.4565C12.8156 45.2374 16.7203 48.0921 19.9576 48.0921C23.3657 48.0921 27.2177 45.3083 30.5259 40.4544C33.5959 35.9492 35.5034 30.6037 35.5034 26.5039C35.504 17.9313 28.5302 10.9578 19.9579 10.9578ZM19.9579 47.2132C17.0095 47.2132 13.3746 44.5006 10.2352 39.957C7.18564 35.5437 5.29102 30.3886 5.29102 26.5036C5.29102 18.4162 11.8705 11.8367 19.9579 11.8367C28.0453 11.8367 34.6248 18.4162 34.6248 26.5036C34.6251 34.6806 26.758 47.2132 19.9579 47.2132Z" fill="#3A312A"/>
<path d="M14.6239 24.8586C13.8095 24.8586 13.1494 25.5187 13.1494 26.3332C13.1494 27.1476 13.8095 27.8077 14.6239 27.8077C15.4384 27.8077 16.0984 27.1476 16.0984 26.3332C16.0984 25.5187 15.4384 24.8586 14.6239 24.8586Z" fill="#3A312A"/>
<path d="M25.2909 24.8586C24.4765 24.8586 23.8164 25.5187 23.8164 26.3332C23.8164 27.1476 24.4765 27.8077 25.2909 27.8077C26.1054 27.8077 26.7654 27.1476 26.7654 26.3332C26.7654 25.5187 26.1054 24.8586 25.2909 24.8586Z" fill="#3A312A"/>
<path d="M11.6777 28.8177C10.275 28.8177 9.1377 29.6679 9.1377 30.7165C9.1377 31.765 10.275 32.6152 11.6777 32.6152C13.0805 32.6152 14.2178 31.765 14.2178 30.7165C14.2178 29.6679 13.0808 28.8177 11.6777 28.8177Z" fill="#F5978A"/>
<path d="M28.2383 32.6156C29.6411 32.6156 30.7783 31.7655 30.7783 30.7168C30.7783 29.6682 29.6411 28.8181 28.2383 28.8181C26.8355 28.8181 25.6982 29.6682 25.6982 30.7168C25.6982 31.7655 26.8355 32.6156 28.2383 32.6156Z" fill="#F5978A"/>
<path d="M14.1925 47.3246L11.1084 49.6487L17.0576 57.5434L20.1417 55.2193L14.1925 47.3246Z" fill="#87796F"/>
<path d="M20.4959 54.9542L14.546 47.0595C14.4757 46.9664 14.3714 46.9051 14.2563 46.8887C14.1388 46.872 14.0234 46.9028 13.9308 46.9728L10.847 49.2972C10.653 49.4434 10.6144 49.7188 10.7603 49.9128L16.7099 57.8074C16.7802 57.9005 16.8845 57.9618 16.9996 57.9782C17.0201 57.9811 17.0406 57.9826 17.0609 57.9826C17.1558 57.9826 17.2489 57.9521 17.3251 57.8941L20.4092 55.5697C20.5024 55.4994 20.5636 55.3951 20.58 55.2799C20.5964 55.1642 20.5662 55.0473 20.4959 54.9542ZM17.1473 56.9276L11.7268 49.7346L14.1089 47.9393L19.5297 55.1323L17.1473 56.9276Z" fill="#3A312A"/>
<path d="M26.0703 47.3263L20.1201 55.2209L23.2042 57.5454L29.1544 49.6508L26.0703 47.3263Z" fill="#87796F"/>
<path d="M29.417 49.2972L26.3333 46.9728C26.2407 46.9028 26.1244 46.8717 26.0078 46.8887C25.8923 46.9051 25.7883 46.9664 25.718 47.0595L19.7681 54.9541C19.6981 55.047 19.6676 55.1642 19.684 55.2796C19.7004 55.3951 19.7617 55.4991 19.8548 55.5694L22.9389 57.8938C23.0154 57.9515 23.1083 57.9823 23.2032 57.9823C23.2234 57.9823 23.2442 57.9808 23.2644 57.9779C23.3798 57.9615 23.4838 57.9002 23.5542 57.8071L29.5038 49.9124C29.6497 49.7188 29.6113 49.4434 29.417 49.2972ZM23.117 56.9276L20.7346 55.1323L26.1554 47.9393L28.5375 49.7346L23.117 56.9276Z" fill="#3A312A"/>
<path d="M7.95605 59.493C7.71348 59.493 7.5166 59.6899 7.5166 59.9325V66.1352C7.5166 66.3778 7.71348 66.5747 7.95605 66.5747C8.19863 66.5747 8.39551 66.3778 8.39551 66.1352V59.9325C8.39551 59.6899 8.19863 59.493 7.95605 59.493Z" fill="#3A312A"/>
<path d="M32.3086 59.493C32.066 59.493 31.8691 59.6899 31.8691 59.9325V66.1352C31.8691 66.3778 32.066 66.5747 32.3086 66.5747C32.5512 66.5747 32.748 66.3778 32.748 66.1352V59.9325C32.748 59.6899 32.5512 59.493 32.3086 59.493Z" fill="#3A312A"/>
<path d="M24.2863 35.7477C24.0584 35.6615 23.8058 35.7779 23.7206 36.0049C23.4209 36.8047 22.2484 38.3179 19.9577 38.3179C18.1679 38.3179 16.9325 37.55 16.1801 35.9703C16.0758 35.7512 15.8139 35.6586 15.5945 35.7623C15.3754 35.8666 15.2822 36.1288 15.3865 36.348C16.2865 38.2382 17.8243 39.1968 19.9577 39.1968C22.3659 39.1968 24.0229 37.7021 24.5432 36.3134C24.6288 36.0861 24.5133 35.8326 24.2863 35.7477Z" fill="#3A312A"/>
<path d="M32.3872 9.00689C29.2132 5.65356 24.7211 3.56177 19.7415 3.56177C17.8791 3.56177 16.0861 3.85444 14.4062 4.39849C15.7369 7.48433 17.3099 10.4477 19.4521 13.027C20.4367 14.2097 21.5283 15.3013 22.6826 16.3141C23.623 17.1508 24.608 17.9404 25.6082 18.6986C29.0181 21.2875 32.6986 23.5774 36.5679 25.443C36.9484 24.0148 37.1497 22.5142 37.1497 20.9667C37.1497 16.3332 35.3409 12.1244 32.3872 9.00689Z" fill="#87796F"/>
<path d="M32.7066 8.70483C29.2988 5.10483 24.6945 3.12231 19.7416 3.12231C17.8692 3.12231 16.0288 3.41089 14.271 3.98071C14.1532 4.0188 14.0571 4.10493 14.0061 4.21743C13.9548 4.33022 13.9537 4.45913 14.0029 4.5728C15.582 8.23491 17.2059 11.0105 19.1143 13.3085C20.0574 14.4412 21.1601 15.5638 22.3906 16.6431C23.2534 17.4107 24.219 18.1979 25.3425 19.049C28.8637 21.7223 32.5759 24.0072 36.3769 25.8397C36.4373 25.8687 36.5026 25.8831 36.5676 25.8831C36.6303 25.8831 36.6927 25.8696 36.751 25.8429C36.87 25.7881 36.9585 25.6833 36.9921 25.5567C37.3882 24.0716 37.5889 22.5271 37.5889 20.967C37.5892 16.3827 35.8551 12.028 32.7066 8.70483ZM36.2729 24.8105C32.6943 23.0451 29.1983 20.8727 25.874 18.3485C24.7689 17.5109 23.8203 16.738 22.9727 15.9839C21.7745 14.9331 20.704 13.8435 19.7905 12.7463C18.0157 10.6091 16.489 8.03481 15.006 4.67358C16.5353 4.2271 18.1258 4.00093 19.7419 4.00093C24.4507 4.00093 28.8286 5.88618 32.0685 9.30894C35.0621 12.4683 36.7106 16.6085 36.7106 20.9667C36.7103 22.2696 36.5632 23.5598 36.2729 24.8105Z" fill="#3A312A"/>
<path d="M19.7412 3.56177C17.8788 3.56177 16.0858 3.85444 14.406 4.39849C7.40371 6.64761 2.33594 13.216 2.33594 20.9667C2.33594 22.6056 2.5624 24.1912 2.98721 25.6947C9.85439 23.1749 16.564 20.1488 22.6823 16.3141C26.1332 14.1532 29.3922 11.7371 32.3869 9.00659C29.2129 5.65356 24.7208 3.56177 19.7412 3.56177Z" fill="#87796F"/>
<path d="M32.7063 8.70483C29.2984 5.10483 24.6941 3.12231 19.7412 3.12231C17.8688 3.12231 16.0284 3.41089 14.2715 3.98042C6.86963 6.35757 1.89648 13.1843 1.89648 20.967C1.89648 22.6144 2.12119 24.2454 2.56416 25.8142C2.59727 25.932 2.67842 26.0307 2.7874 26.0864C2.8498 26.1183 2.91836 26.1344 2.98721 26.1344C3.03848 26.1344 3.08975 26.1256 3.13867 26.1075C10.8426 23.2803 17.3119 20.1992 22.9155 16.6868C26.5179 14.4312 29.8041 11.9565 32.6831 9.33179C32.7704 9.25239 32.822 9.14136 32.8261 9.02329C32.8305 8.90522 32.7871 8.79067 32.7063 8.70483ZM22.4488 15.942C17.0072 19.3528 10.7348 22.356 3.28721 25.1158C2.94736 23.7669 2.77539 22.3736 2.77539 20.967C2.77539 13.5672 7.50361 7.0771 14.5413 4.81655C16.2115 4.27544 17.9611 4.00122 19.7412 4.00122C24.3004 4.00122 28.5487 5.76782 31.7547 8.98667C28.9955 11.4631 25.8672 13.8016 22.4488 15.942Z" fill="#3A312A"/>
<path d="M52.9682 0.838135C49.4394 0.838135 46.239 2.06772 43.8844 4.06313L41.0593 7.5647C40.2996 9.0231 39.873 10.6432 39.873 12.3521C39.873 15.256 41.0985 17.9071 43.1159 19.9327L41.047 25.1466C40.8486 25.6464 41.3235 26.1509 41.8345 25.9828L49.5076 23.4571C50.6104 23.7222 51.7696 23.8664 52.9682 23.8664C60.2004 23.8664 66.0633 18.7113 66.0633 12.3521C66.0633 5.99321 60.2004 0.838135 52.9682 0.838135Z" fill="#D7E057"/>
<path d="M52.9676 0.398926C49.4596 0.398926 46.1329 1.58105 43.5996 3.72793C43.4145 3.88496 43.3916 4.16211 43.5483 4.34727C43.7054 4.53271 43.9822 4.55498 44.1677 4.39854C46.5422 2.38613 49.6673 1.27783 52.9673 1.27783C59.9455 1.27783 65.623 6.246 65.623 12.3526C65.623 18.4593 59.9461 23.4271 52.9676 23.4271C51.8367 23.4271 50.7067 23.2936 49.6099 23.0302C49.5305 23.0105 49.447 23.0146 49.3699 23.0398L41.6971 25.5655C41.5931 25.5992 41.526 25.5474 41.4943 25.514C41.463 25.4806 41.4155 25.4091 41.4554 25.3092L43.5246 20.0949C43.5891 19.932 43.551 19.7466 43.4273 19.6227C41.4188 17.6062 40.3125 15.0245 40.3125 12.3526C40.3125 10.7586 40.6948 9.21611 41.4489 7.76855C41.5611 7.55322 41.4776 7.28779 41.2623 7.17588C41.047 7.06367 40.7815 7.14746 40.6696 7.3625C39.8493 8.93691 39.4336 10.6159 39.4336 12.3529C39.4336 15.1675 40.5565 17.8848 42.6023 20.0357L40.6386 24.9854C40.483 25.3769 40.5656 25.8104 40.8545 26.1172C41.0622 26.3378 41.342 26.4559 41.6314 26.4559C41.7445 26.4559 41.8591 26.4377 41.9716 26.4008L49.527 23.9138C50.6528 24.1745 51.8095 24.3066 52.9676 24.3066C60.4307 24.3066 66.5021 18.9441 66.5021 12.3529C66.5021 5.76172 60.4307 0.398926 52.9676 0.398926Z" fill="#3A312A"/>
<path d="M60.1006 6.65991H46.249C46.0064 6.65991 45.8096 6.85679 45.8096 7.09937C45.8096 7.34194 46.0064 7.53882 46.249 7.53882H60.1006C60.3432 7.53882 60.54 7.34194 60.54 7.09937C60.54 6.85679 60.3432 6.65991 60.1006 6.65991Z" fill="#3A312A"/>
<path d="M61.5396 11.1184H44.291C44.0484 11.1184 43.8516 11.3153 43.8516 11.5579C43.8516 11.8004 44.0484 11.9973 44.291 11.9973H61.5396C61.7821 11.9973 61.979 11.8004 61.979 11.5579C61.979 11.3153 61.7821 11.1184 61.5396 11.1184Z" fill="#3A312A"/>
<path d="M60.1006 15.5764H46.249C46.0064 15.5764 45.8096 15.7733 45.8096 16.0159C45.8096 16.2584 46.0064 16.4553 46.249 16.4553H60.1006C60.3432 16.4553 60.54 16.2584 60.54 16.0159C60.54 15.7733 60.3432 15.5764 60.1006 15.5764Z" fill="#3A312A"/>
<path d="M52.9668 1.27783C52.5742 1.27783 52.1816 1.29248 51.7949 1.32764C58.2256 1.84326 63.2793 6.59229 63.2793 12.3521C63.2793 18.1147 58.2256 22.8608 51.792 23.3765C52.1816 23.4116 52.5742 23.4263 52.9668 23.4263C59.9453 23.4263 65.623 18.4604 65.623 12.3521C65.623 6.24658 59.9453 1.27783 52.9668 1.27783Z" fill="#B9BC39"/>
<path d="M30.4873 50.063H29.3916L29.2715 50.2212C33.0332 50.9741 35.8779 54.3022 35.8779 58.2837V65.6958H38.708V58.2837C38.708 53.7515 35.0195 50.063 30.4873 50.063Z" fill="#CE4E61"/>
</svg>
