<svg width="80" height="62" viewBox="0 0 80 62" fill="none" xmlns="http://www.w3.org/2000/svg">
<path d="M75.9844 50.7868H4.01562C2.48813 50.7868 1.25 49.5487 1.25 48.0212V3.70996C1.25 2.18246 2.48813 0.944336 4.01562 0.944336H75.9844C77.5119 0.944336 78.75 2.18246 78.75 3.70996V48.0212C78.75 49.5487 77.5119 50.7868 75.9844 50.7868Z" fill="#F4EFED"/>
<path d="M4.01562 50.7868H7.14062C5.61313 50.7868 4.375 49.5487 4.375 48.0212V3.70996C4.375 2.18246 5.61313 0.944336 7.14062 0.944336H4.01562C2.48813 0.944336 1.25 2.18246 1.25 3.70996V48.0212C1.25 49.5487 2.48813 50.7868 4.01562 50.7868Z" fill="white"/>
<path d="M75.9844 0.944336H72.8594C74.3869 0.944336 75.625 2.18246 75.625 3.70996V48.0212C75.625 49.5487 74.3869 50.7868 72.8594 50.7868H75.9844C77.5119 50.7868 78.75 49.5487 78.75 48.0212V3.70996C78.75 2.18246 77.5119 0.944336 75.9844 0.944336Z" fill="#D6D1CF"/>
<path d="M65.2819 61.0556H14.7188V57.3512C14.7188 55.8237 15.9569 54.5856 17.4844 54.5856H62.5163C64.0437 54.5856 65.2819 55.8237 65.2819 57.3512V61.0556Z" fill="#FF4397"/>
<path d="M62.5156 54.5856H59.3906C60.9181 54.5856 62.1563 55.8237 62.1563 57.3512V61.0559H65.2813V57.3512C65.2813 55.8237 64.0431 54.5856 62.5156 54.5856Z" fill="#E12579"/>
<path d="M17.4844 54.5856H20.6094C19.0819 54.5856 17.8438 55.8237 17.8438 57.3512V61.0559H14.7188V57.3512C14.7188 55.8237 15.9569 54.5856 17.4844 54.5856Z" fill="#FF61B5"/>
<path d="M25.1575 54.5856L54.8428 54.5856V50.7869H25.1575V54.5856Z" fill="#E12579"/>
<path d="M3.75 13.8206C3.40469 13.8206 3.125 13.5406 3.125 13.1956V9.44556C3.125 9.10024 3.40469 8.82056 3.75 8.82056C4.095 8.82056 4.375 9.10024 4.375 9.44556V13.1956C4.375 13.5406 4.095 13.8206 3.75 13.8206Z" fill="#690589"/>
<path d="M65.2819 61.6806H14.7188C14.3734 61.6806 14.0938 61.4006 14.0938 61.0556V57.3509C14.0938 55.4813 15.6147 53.9603 17.4844 53.9603H62.5163C64.3859 53.9603 65.9072 55.4813 65.9072 57.3509V61.0556C65.9069 61.4009 65.6272 61.6806 65.2819 61.6806ZM15.3438 60.4306H64.6569V57.3509C64.6569 56.1706 63.6966 55.2103 62.5159 55.2103H17.4844C16.3041 55.2103 15.3438 56.1706 15.3438 57.3509V60.4306Z" fill="#690589"/>
<path d="M54.8428 55.2105H25.1572C24.8122 55.2105 24.5322 54.9305 24.5322 54.5855V50.7871C24.5322 50.4418 24.8122 50.1621 25.1572 50.1621H54.8428C55.1879 50.1621 55.4678 50.4418 55.4678 50.7871V54.5855C55.4678 54.9305 55.1882 55.2105 54.8428 55.2105ZM25.7822 53.9605H54.2178V51.4121H25.7822V53.9605Z" fill="#690589"/>
<path d="M75.9844 51.4118H4.01562C2.14594 51.4118 0.625 49.8909 0.625 48.0212V3.70996C0.625 1.84027 2.14594 0.319336 4.01562 0.319336H75.9844C77.8537 0.319336 79.375 1.84027 79.375 3.70996V48.0212C79.375 49.8909 77.8541 51.4118 75.9844 51.4118ZM4.01562 1.56934C2.83531 1.56934 1.875 2.52965 1.875 3.70996V48.0212C1.875 49.2015 2.83531 50.1618 4.01562 50.1618H75.9844C77.1647 50.1618 78.125 49.2015 78.125 48.0212V3.70996C78.125 2.52965 77.165 1.56934 75.9844 1.56934H4.01562Z" fill="#690589"/>
<path d="M8.69215 50.7868V38.2721H4.31152V33.1334H8.69215V26.03C8.69215 23.9978 10.3393 22.3506 12.3715 22.3506H19.2221V27.2365H15.2184C14.4056 27.2365 13.7465 27.8956 13.7465 28.7084V33.1334H19.2221L18.4862 38.2721H13.7465V50.7868H8.69215Z" fill="#F4EFED"/>
<path d="M13.7465 51.4118H8.69215C8.34715 51.4118 8.06715 51.1318 8.06715 50.7868V38.8971H4.31152C3.96652 38.8971 3.68652 38.6175 3.68652 38.2721V33.1334C3.68652 32.7884 3.96652 32.5084 4.31152 32.5084H8.06715V26.03C8.06715 23.6565 9.99809 21.7256 12.3715 21.7256H19.2221C19.5671 21.7256 19.8471 22.0056 19.8471 22.3506V27.2365C19.8471 27.5815 19.5671 27.8615 19.2221 27.8615H15.2184C14.7515 27.8615 14.3718 28.2412 14.3718 28.7081V32.5084H19.2225C19.4037 32.5084 19.5759 32.5868 19.6946 32.724C19.8134 32.8609 19.8668 33.0428 19.8412 33.2221L19.1056 38.3609C19.0615 38.6687 18.7978 38.8971 18.4868 38.8971H14.3715V50.7868C14.3715 51.1321 14.0918 51.4118 13.7465 51.4118ZM9.31715 50.1618H13.1215V38.2721C13.1215 37.9271 13.4015 37.6471 13.7465 37.6471H17.9446L18.5015 33.7584H13.7465C13.4015 33.7584 13.1215 33.4784 13.1215 33.1334V28.7081C13.1215 27.5518 14.0621 26.6115 15.2181 26.6115H18.5968V22.9756H12.3715C10.6875 22.9756 9.31715 24.3459 9.31715 26.03V33.1334C9.31715 33.4784 9.03715 33.7584 8.69215 33.7584H4.93652V37.6471H8.69215C9.03715 37.6471 9.31715 37.9271 9.31715 38.2721V50.1618Z" fill="#690589"/>
<path d="M39.5054 41.8047H37.561H34.0672C34.0704 41.7487 34.076 41.6934 34.076 41.6369V36.1647H28.0772V41.6369C28.0772 41.6937 28.0825 41.749 28.086 41.8047H24.5922H22.6479C20.5475 41.8047 18.8447 43.5075 18.8447 45.6078V50.7869H43.3085V45.6078C43.3085 43.5072 41.6057 41.8047 39.5054 41.8047Z" fill="#7BAC51"/>
<path d="M22.6479 41.8047H24.4057C22.3054 41.8047 20.6025 43.5072 20.6025 45.6078V50.7869H18.8447V45.6078C18.8447 43.5072 20.5475 41.8047 22.6479 41.8047Z" fill="#99CA6F"/>
<path d="M34.07 41.7915L34.0756 36.1643H28.0771L28.0828 41.7915C28.0843 43.4437 29.4243 44.7821 31.0762 44.7821C32.7287 44.7821 34.0684 43.4437 34.07 41.7915Z" fill="#E18152"/>
<path d="M43.3085 51.4118H18.8447C18.4997 51.4118 18.2197 51.1318 18.2197 50.7868V45.6077C18.2197 43.1659 20.206 41.1796 22.6479 41.1796H27.4522V36.1643C27.4522 35.8193 27.7322 35.5393 28.0772 35.5393H34.0757C34.4207 35.5393 34.7007 35.8193 34.7007 36.1643V41.1796H39.505C41.9469 41.1796 43.9332 43.1659 43.9332 45.6077V50.7868C43.9335 51.1321 43.6535 51.4118 43.3085 51.4118ZM19.4697 50.1618H42.6835V45.6077C42.6835 43.8552 41.2579 42.4296 39.5054 42.4296H34.0672C33.8954 42.4296 33.731 42.3587 33.6129 42.2337C33.4947 42.1087 33.4335 41.9406 33.4435 41.769L33.4472 41.7118C33.4488 41.6868 33.4513 41.6618 33.4513 41.6365V36.7893H28.7022V41.6365C28.7022 41.6618 28.7044 41.6868 28.7063 41.7118L28.71 41.769C28.72 41.9406 28.6585 42.1087 28.5407 42.2337C28.4225 42.3587 28.2582 42.4296 28.0863 42.4296H22.6479C20.8954 42.4296 19.4697 43.8552 19.4697 45.6077V50.1618Z" fill="#690589"/>
<path d="M31.0765 45.4071C29.0834 45.4071 27.46 43.7856 27.4578 41.7921L27.4521 36.1649C27.4521 35.999 27.5178 35.8399 27.635 35.7224C27.7525 35.6052 27.9112 35.5393 28.0771 35.5393H34.0756C34.2415 35.5393 34.4006 35.6052 34.5178 35.7224C34.635 35.8399 34.7006 35.999 34.7006 36.1649L34.695 41.7921C34.6931 43.7856 33.0696 45.4071 31.0765 45.4071ZM28.7028 36.7893L28.7078 41.7909C28.709 43.0956 29.7715 44.1571 31.0765 44.1571C32.3815 44.1571 33.4437 43.0959 33.4453 41.7909L33.4503 36.7893H28.7028ZM34.07 41.7915H34.0731H34.07Z" fill="#690589"/>
<path d="M31.0771 40.035C27.4959 40.035 24.5928 37.094 24.5928 33.4665V28.919C24.5928 25.2912 27.4959 22.3506 31.0771 22.3506C34.6584 22.3506 37.5615 25.2915 37.5615 28.919V33.4665C37.5615 37.0943 34.6584 40.035 31.0771 40.035Z" fill="#FF9F70"/>
<path d="M31.0771 40.6599C27.1571 40.6599 23.9678 37.4327 23.9678 33.4662V28.9187C23.9678 24.9521 27.1571 21.7252 31.0771 21.7252C34.9971 21.7252 38.1865 24.9521 38.1865 28.9187V33.4662C38.1865 37.4327 34.9971 40.6599 31.0771 40.6599ZM31.0771 22.9755C27.8462 22.9755 25.2178 25.6418 25.2178 28.919V33.4665C25.2178 36.7437 27.8462 39.4102 31.0771 39.4102C34.3081 39.4102 36.9365 36.744 36.9365 33.4665V28.919C36.9365 25.6418 34.3081 22.9755 31.0771 22.9755Z" fill="#690589"/>
<path d="M71.8849 41.8047H69.9405H66.4468C66.4499 41.7487 66.4555 41.6934 66.4555 41.6369V36.1647H60.4571V41.6369C60.4571 41.6937 60.4624 41.749 60.4659 41.8047H56.9721H55.0277C52.9274 41.8047 51.2246 43.5075 51.2246 45.6078V50.7869H75.6884V45.6078C75.688 43.5072 73.9852 41.8047 71.8849 41.8047Z" fill="#7BAC51"/>
<path d="M71.8848 41.8047H70.127C72.2273 41.8047 73.9301 43.5072 73.9301 45.6078V50.7869H75.6879V45.6078C75.6879 43.5072 73.9851 41.8047 71.8848 41.8047Z" fill="#5D8E33"/>
<path d="M66.4498 41.7915L66.4555 36.1643H60.457L60.4627 41.7915C60.4642 43.4437 61.8042 44.7821 63.4564 44.7821C65.1083 44.7821 66.448 43.4437 66.4498 41.7915Z" fill="#E18152"/>
<path d="M75.6884 51.4118H51.2246C50.8793 51.4118 50.5996 51.1318 50.5996 50.7868V45.6077C50.5996 43.1659 52.5862 41.1796 55.028 41.1796H59.8324V36.1643C59.8324 35.8193 60.1124 35.5393 60.4574 35.5393H66.4555C66.8009 35.5393 67.0805 35.8193 67.0805 36.1643V41.1796H71.8852C74.3268 41.1796 76.3134 43.1659 76.3134 45.6077V50.7868C76.3134 51.1321 76.0337 51.4118 75.6884 51.4118ZM51.8496 50.1618H75.0634V45.6077C75.0634 43.8552 73.6377 42.4296 71.8852 42.4296H66.4471C66.2749 42.4296 66.1102 42.3587 65.9921 42.2331C65.874 42.1077 65.813 41.9393 65.8234 41.7671L65.8265 41.7177C65.8284 41.6909 65.8309 41.664 65.8309 41.6365V36.7893H61.0827V41.6365C61.0827 41.6615 61.0849 41.6859 61.0865 41.7102L61.0905 41.7702C61.0999 41.9415 61.0384 42.1096 60.9202 42.234C60.8021 42.3587 60.6384 42.4293 60.4665 42.4293H55.0287C53.2762 42.4293 51.8502 43.8549 51.8502 45.6074V50.1618H51.8496Z" fill="#690589"/>
<path d="M63.4564 45.4072C61.4633 45.4072 59.8398 43.7856 59.8377 41.7925L59.832 36.1653C59.8317 35.9994 59.8977 35.8403 60.0148 35.7228C60.132 35.6056 60.2911 35.5397 60.457 35.5397H66.4552C66.6211 35.5397 66.7802 35.6056 66.8973 35.7228C67.0145 35.8403 67.0805 35.9994 67.0802 36.1653L67.0745 41.7925C67.0733 43.7856 65.4498 45.4072 63.4564 45.4072ZM61.083 36.7894L61.088 41.7909C61.0895 43.0956 62.152 44.1572 63.4567 44.1572C64.7614 44.1572 65.8239 43.0959 65.8252 41.7909L65.8302 36.7894H61.083Z" fill="#690589"/>
<path d="M63.4561 40.035C59.8748 40.035 56.9717 37.094 56.9717 33.4665V28.919C56.9717 25.2912 59.8748 22.3506 63.4561 22.3506C67.0373 22.3506 69.9404 25.2915 69.9404 28.919V33.4665C69.9404 37.0943 67.0373 40.035 63.4561 40.035Z" fill="#FF9F70"/>
<path d="M63.4561 40.6599C59.5361 40.6599 56.3467 37.4327 56.3467 33.4662V28.9187C56.3467 24.9521 59.5361 21.7252 63.4561 21.7252C67.3761 21.7252 70.5654 24.9521 70.5654 28.9187V33.4662C70.5654 37.4327 67.3761 40.6599 63.4561 40.6599ZM63.4561 22.9755C60.2251 22.9755 57.5967 25.6418 57.5967 28.919V33.4665C57.5967 36.7437 60.2251 39.4102 63.4561 39.4102C66.687 39.4102 69.3154 36.744 69.3154 33.4665V28.919C69.3154 25.6418 66.687 22.9755 63.4561 22.9755Z" fill="#690589"/>
<path d="M57.0207 40.4281H54.7707H50.7276C50.7313 40.3634 50.7376 40.2993 50.7376 40.2337V33.9009H43.796V40.2337C43.796 40.2993 43.8023 40.3634 43.806 40.4281H39.7626H37.5126C35.082 40.4281 33.1113 42.3984 33.1113 44.8293V50.7868H61.422V44.8293C61.422 42.3987 59.4516 40.4281 57.0207 40.4281Z" fill="#FCC24C"/>
<path d="M57.0207 40.4281H54.9863C57.417 40.4281 59.3876 42.3984 59.3876 44.8294V50.7868H61.422V44.8294C61.422 42.3987 59.4516 40.4281 57.0207 40.4281Z" fill="#DEA42E"/>
<path d="M37.5126 40.4281H39.547C37.1163 40.4281 35.1457 42.3984 35.1457 44.8294V50.7868H33.1113V44.8294C33.1113 42.3987 35.0816 40.4281 37.5126 40.4281Z" fill="#FCE06A"/>
<path d="M50.7309 40.4131L50.7375 33.9009H43.7959L43.8025 40.4131C43.8043 42.3249 45.355 43.874 47.2668 43.874C49.1784 43.874 50.729 42.3249 50.7309 40.4131Z" fill="#E18152"/>
<path d="M61.422 51.4118H33.1113C32.7663 51.4118 32.4863 51.1318 32.4863 50.7868V44.8293C32.4863 42.0578 34.741 39.8031 37.5123 39.8031H43.1707V33.9009C43.1707 33.5556 43.4507 33.2759 43.7957 33.2759H50.7373C51.0826 33.2759 51.3623 33.5556 51.3623 33.9009V39.8031H57.0207C59.792 39.8031 62.0466 42.0578 62.0466 44.8293V50.7868C62.047 51.1321 61.767 51.4118 61.422 51.4118ZM33.7363 50.1618H60.797V44.8293C60.797 42.7471 59.1032 41.0531 57.021 41.0531H50.7276C50.5557 41.0531 50.3913 40.9821 50.2732 40.8574C50.1554 40.7328 50.0938 40.5643 50.1035 40.3931L50.1076 40.3309C50.1098 40.299 50.1126 40.2665 50.1126 40.234V34.5262H44.421V40.234C44.421 40.2678 44.4238 40.3012 44.4263 40.3343L44.4301 40.3899C44.4407 40.5621 44.3798 40.7309 44.2616 40.8565C44.1435 40.9821 43.9788 41.0534 43.8063 41.0534H37.5126C35.4304 41.0534 33.7366 42.7471 33.7366 44.8296V50.1618H33.7363Z" fill="#690589"/>
<path d="M47.2668 44.499C45.0143 44.499 43.18 42.6665 43.1775 40.414L43.1709 33.9018C43.1706 33.7359 43.2365 33.5768 43.3537 33.4596C43.4709 33.3424 43.63 33.2765 43.7959 33.2765H50.7375C50.9034 33.2765 51.0625 33.3424 51.1797 33.4596C51.2968 33.5768 51.3628 33.7362 51.3625 33.9018L51.3562 40.4137C51.354 42.6665 49.5197 44.499 47.2668 44.499ZM44.4215 34.5262L44.4275 40.4124C44.4293 41.9765 45.7028 43.249 47.2668 43.249C48.8309 43.249 50.1047 41.9765 50.1062 40.4124L50.1118 34.5262H44.4215Z" fill="#690589"/>
<path d="M47.2668 38.3803C43.1224 38.3803 39.7627 34.9769 39.7627 30.7787V25.5162C39.7627 21.3181 43.1224 17.9147 47.2668 17.9147C51.4111 17.9147 54.7708 21.3178 54.7708 25.5162V30.7787C54.7708 34.9772 51.4111 38.3803 47.2668 38.3803Z" fill="#FF9F70"/>
<path d="M47.2668 39.0053C42.7843 39.0053 39.1377 35.3147 39.1377 30.7787V25.5162C39.1377 20.98 42.7843 17.2897 47.2668 17.2897C51.7493 17.2897 55.3958 20.98 55.3958 25.5162V30.7787C55.3958 35.315 51.7493 39.0053 47.2668 39.0053ZM47.2668 18.5397C43.4736 18.5397 40.3877 21.6694 40.3877 25.5162V30.7787C40.3877 34.6256 43.4736 37.7553 47.2668 37.7553C51.0599 37.7553 54.1458 34.6256 54.1458 30.7787V25.5162C54.1458 21.6694 51.0599 18.5397 47.2668 18.5397Z" fill="#690589"/>
</svg>
