<svg width="65" height="65" viewBox="0 0 65 65" fill="none" xmlns="http://www.w3.org/2000/svg">
<path d="M64.2543 63.0293H52.8516V39.6345L56.3557 36.7819C56.6138 36.572 56.6523 36.193 56.443 35.9355C56.2336 35.6787 55.854 35.6384 55.5972 35.8489L52.8522 38.0837V23.793C52.8522 23.4609 52.5833 23.1914 52.2507 23.1914H43.5208C43.1881 23.1914 42.9192 23.4609 42.9192 23.793V32.5878H34.7921C34.4595 32.5878 34.1906 32.8573 34.1906 33.1894V45.1466L27.201 39.9353V18.5323C27.201 18.2003 26.9321 17.9308 26.5994 17.9308H18.4717V13.2813C18.4717 12.9492 18.2028 12.6797 17.8702 12.6797H9.1409C8.80823 12.6797 8.53934 12.9492 8.53934 13.2813V48.4131L3.75391 52.6662V3.77539C3.75391 3.44333 3.48501 3.17383 3.15234 3.17383C2.81968 3.17383 2.55078 3.44333 2.55078 3.77539V63.6309C2.55078 63.9629 2.81968 64.2324 3.15234 64.2324H9.1409H17.8702H26.5994H34.7921H43.5208H52.2501H64.2543C64.5869 64.2324 64.8558 63.9629 64.8558 63.6309C64.8558 63.2988 64.5869 63.0293 64.2543 63.0293ZM34.1906 46.6475V63.0293H27.201V41.4356L34.1906 46.6475ZM3.75391 54.276L8.53934 50.0229V63.0293H3.75391V54.276Z" fill="#E6E7E8"/>
<path d="M15.463 10.8751H6.73438V61.2246H15.463V10.8751Z" fill="#6DC9F7"/>
<path d="M24.1925 16.1261H15.4639V61.2246H24.1925V16.1261Z" fill="#FA759E"/>
<path d="M41.1144 30.7832H32.3857V61.2247H41.1144V30.7832Z" fill="#6DC9F7"/>
<path d="M49.8429 21.3868H41.1143V61.2247H49.8429V21.3868Z" fill="white"/>
<path d="M48.0382 21.3868H41.1143V61.2247H48.0382V21.3868Z" fill="#FA759E"/>
<path d="M61.848 60.623H50.4454V37.2283L53.9495 34.3757C54.2076 34.1657 54.2461 33.7867 54.0367 33.5293C53.8274 33.2724 53.4478 33.2327 53.1909 33.4426L50.446 35.6775V21.3867C50.446 21.0547 50.1771 20.7852 49.8444 20.7852H41.1145C40.7819 20.7852 40.513 21.0547 40.513 21.3867V30.1816H32.3853C32.0526 30.1816 31.7837 30.4511 31.7837 30.7831V42.7404L24.7942 37.5291V31.7661C24.7942 31.434 24.5253 31.1645 24.1926 31.1645C23.8599 31.1645 23.591 31.434 23.591 31.7661V36.6321L20.2265 34.1236C19.9985 33.9528 19.6809 33.9666 19.4673 34.1561L16.0649 37.1802V16.7276H23.591V21.9841C23.591 22.3161 23.8599 22.5856 24.1926 22.5856C24.5253 22.5856 24.7942 22.3161 24.7942 21.9841V16.1261C24.7942 15.794 24.5253 15.5245 24.1926 15.5245H16.0655V10.875C16.0655 10.543 15.7966 10.2735 15.4639 10.2735H6.73525C6.40259 10.2735 6.13369 10.543 6.13369 10.875V46.0063L1.34766 50.2599V1.36914C1.34766 1.03708 1.07876 0.767578 0.746094 0.767578C0.41343 0.767578 0.144531 1.03708 0.144531 1.36914V61.2246C0.144531 61.5567 0.41343 61.8262 0.746094 61.8262H6.73525H15.4639H24.1926H32.3853H41.1145H49.8438H61.848C62.1807 61.8262 62.4496 61.5567 62.4496 61.2246C62.4496 60.8925 62.1807 60.623 61.848 60.623ZM41.7161 21.9883H49.2423V36.6568L41.7161 42.7831V30.7831V21.9883ZM32.9868 31.3847H40.513V43.7625L36.995 46.6259L32.9868 43.6373V31.3847ZM31.7837 44.2413V60.623H24.7942V39.0294L31.7837 44.2413ZM7.33681 11.4766H14.8624V16.1261V38.2491L7.33681 44.9373V11.4766ZM1.34766 51.8697L6.13369 47.6161V60.623H1.34766V51.8697ZM7.33681 46.5471L14.8624 39.8589V60.623H7.33681V46.5471ZM16.0655 60.623V38.7893L19.901 35.3803L23.5916 38.1318V60.6224H16.0655V60.623ZM32.9868 45.1382L36.6522 47.8711C36.8729 48.0354 37.1779 48.0293 37.3915 47.8555L40.513 45.3139V60.623H32.9868V45.1382ZM41.7161 60.623V44.3345L49.2423 38.2076V60.623H41.7161Z" fill="#3A2C60"/>
<path d="M24.1924 24.0715C23.8597 24.0715 23.5908 24.341 23.5908 24.6731V28.9598C23.5908 29.2919 23.8597 29.5614 24.1924 29.5614C24.525 29.5614 24.7939 29.2919 24.7939 28.9598V24.6731C24.7939 24.341 24.525 24.0715 24.1924 24.0715Z" fill="#3A2C60"/>
</svg>
